<?xml version="1.0" encoding="UTF-8"?>
<svg width="25px" height="26px" viewBox="0 0 25 26" version="1.1" xmlns="http://www.w3.org/2000/svg" xmlns:xlink="http://www.w3.org/1999/xlink">
    <!-- Generator: Sketch 53.2 (72643) - https://sketchapp.com -->
    <title>file-2</title>
    <desc>Created with Sketch.</desc>
    <g id="changes" stroke="none" stroke-width="1" fill="none" fill-rule="evenodd">
        <g id="01_Homepage" transform="translate(-1187.000000, -87.000000)" fill="#6D3078" fill-rule="nonzero">
            <g id="file-2" transform="translate(1188.000000, 88.000000)">
                <path d="M14.6876,8.8 L4.6876,8.8 C4.4668,8.8 4.2876,8.9792 4.2876,9.2 C4.2876,9.4208 4.4668,9.6 4.6876,9.6 L14.6876,9.6 C14.9084,9.6 15.0876,9.4208 15.0876,9.2 C15.0876,8.9792 14.9084,8.8 14.6876,8.8 Z" id="Path"></path>
                <path d="M4.6876,6.4 L8.6876,6.4 C8.9084,6.4 9.0876,6.2208 9.0876,6 C9.0876,5.7792 8.9084,5.6 8.6876,5.6 L4.6876,5.6 C4.4668,5.6 4.2876,5.7792 4.2876,6 C4.2876,6.2208 4.4668,6.4 4.6876,6.4 Z" id="Path"></path>
                <path d="M14.6876,12 L4.6876,12 C4.4668,12 4.2876,12.1792 4.2876,12.4 C4.2876,12.6208 4.4668,12.8 4.6876,12.8 L14.6876,12.8 C14.9084,12.8 15.0876,12.6208 15.0876,12.4 C15.0876,12.1792 14.9084,12 14.6876,12 Z" id="Path"></path>
                <path d="M11.4876,15.2 L4.6876,15.2 C4.4668,15.2 4.2876,15.3792 4.2876,15.6 C4.2876,15.8208 4.4668,16 4.6876,16 L11.4876,16 C11.7084,16 11.8876,15.8208 11.8876,15.6 C11.8876,15.3792 11.7084,15.2 11.4876,15.2 Z" id="Path"></path>
                <path d="M10.2876,19.2 C10.5084,19.2 10.6876,19.0208 10.6876,18.8 C10.6876,18.5792 10.5084,18.4 10.2876,18.4 L4.6876,18.4 C4.4668,18.4 4.2876,18.5792 4.2876,18.8 C4.2876,19.0208 4.4668,19.2 4.6876,19.2 L10.2876,19.2 Z" id="Path"></path>
                <path d="M1.0876,0.8 L12.6876,0.8 L12.6876,6.4 L18.2876,6.4 L18.2876,13.6 L19.0876,13.6 L19.0876,5.8344 L13.2532,0 L0.2876,0 L0.2876,24 L11.8876,24 L11.8876,23.2 L1.0876,23.2 L1.0876,0.8 Z M13.4876,1.3656 L17.722,5.6 L13.4876,5.6 L13.4876,1.3656 Z" id="Shape" stroke="#6D3078" stroke-width="0.6"></path>
                <path d="M23.3628,14.8648 L22.2232,13.7248 C21.772,13.2736 20.9856,13.2736 20.5344,13.7248 L14.378,19.8808 L13.5296,22.9924 L13.322,23.2 C13.1668,23.3552 13.1664,23.6056 13.3196,23.762 L13.3176,23.77 L13.3256,23.768 C13.4032,23.844 13.504,23.8828 13.6048,23.8828 C13.7072,23.8828 13.8096,23.8436 13.8876,23.7656 L14.0952,23.558 L17.2068,22.7096 L23.3628,16.5532 C23.5884,16.3276 23.7128,16.028 23.7128,15.7088 C23.7128,15.3896 23.5884,15.09 23.3628,14.8648 Z M15.3016,20.0888 L19.3988,15.9916 L21.096,17.6888 L16.9988,21.786 L15.3016,20.0888 Z M14.9404,20.8588 L16.2284,22.1468 L14.4576,22.6296 L14.9404,20.8588 Z M22.7972,15.9876 L21.6616,17.1232 L19.9644,15.426 L21.1,14.2904 C21.2488,14.1416 21.5084,14.1412 21.6572,14.2904 L22.7972,15.4304 C22.8716,15.5048 22.9128,15.6036 22.9128,15.7088 C22.9124,15.814 22.8716,15.9132 22.7972,15.9876 Z" id="Shape" stroke="#6D3078" stroke-width="0.3"></path>
            </g>
        </g>
    </g>
</svg>