<?xml version="1.0" encoding="UTF-8"?>
<svg width="45px" height="45px" viewBox="0 0 45 45" version="1.1" xmlns="http://www.w3.org/2000/svg" xmlns:xlink="http://www.w3.org/1999/xlink">
    <!-- Generator: Sketch 53.2 (72643) - https://sketchapp.com -->
    <title>AppStore_orange</title>
    <desc>Created with Sketch.</desc>
    <g id="Page-1" stroke="none" stroke-width="1" fill="none" fill-rule="evenodd">
        <g id="AppStore_orange" fill="#F37435" fill-rule="nonzero">
            <path d="M22.5,45 C10.0735931,45 0,34.9264069 0,22.5 C0,10.0735931 10.0735931,0 22.5,0 C34.9264069,0 45,10.0735931 45,22.5 C45,34.9264069 34.9264069,45 22.5,45 Z M13.6743678,34.8815368 L15.4107607,31.88535 L10.2298487,31.88535 L9.7886164,32.6466666 C9.17015544,33.7139045 9.53852198,35.0834877 10.6097912,35.6996214 C10.9621848,35.9022876 11.347332,35.9985696 11.7277231,35.9985696 C12.503671,35.9984802 13.2593384,35.5977073 13.6743678,34.8815368 Z M9.44340174,30.0973823 L26.4806921,30.0973823 L23.8901912,25.6274631 L19.0373543,25.6274631 L26.7308762,12.3520712 C27.030505,11.8350804 27.1101906,11.2327141 26.9550369,10.6560945 C26.799973,10.0794749 26.4287349,9.59752823 25.9097912,9.29902703 C24.8387912,8.68289337 23.4640346,9.04978431 22.8453044,10.1171116 L22.5,10.7128625 L22.1546956,10.1170222 C21.5362346,9.04987373 20.161478,8.68280396 19.0902088,9.29893761 L19.0901191,9.29893761 C18.0188499,9.91516068 17.650573,11.2847439 18.269034,12.3519818 L19.9094991,15.1826923 L13.8564422,25.6274631 L9.44340174,25.6274631 C8.20639004,25.6274631 7.2,26.630066 7.2,27.8624227 C7.2,29.0947794 8.20639004,30.0973823 9.44340174,30.0973823 Z M35.5565983,30.0973823 C36.79361,30.0973823 37.8,29.0947794 37.8,27.8624227 C37.8,26.630066 36.79361,25.6274631 35.5565983,25.6274631 L31.1435578,25.6274631 L26.1265038,16.9705706 L23.5360927,21.4404898 L31.3255425,34.881358 C31.6251713,35.3984383 32.1089384,35.7682794 32.6878258,35.9228492 C32.8812071,35.9745215 33.0771906,36 33.2720973,36 C33.660834,36 34.0445455,35.898354 34.3902985,35.699532 C35.461478,35.083309 35.8298446,33.7137257 35.2112938,32.6465772 L33.7339689,30.0973823 L35.5565983,30.0973823 Z" id="Combined-Shape"></path>
        </g>
    </g>
</svg>