<?xml version="1.0" encoding="UTF-8"?>
<svg width="140px" height="56px" viewBox="0 0 140 56" version="1.1" xmlns="http://www.w3.org/2000/svg" xmlns:xlink="http://www.w3.org/1999/xlink">
    <!-- Generator: Sketch 53.2 (72643) - https://sketchapp.com -->
    <title>Car</title>
    <desc>Created with Sketch.</desc>
    <g id="Page-1" stroke="none" stroke-width="1" fill="none" fill-rule="evenodd">
        <g id="Car" fill="#6D3078" fill-rule="nonzero">
            <g id="car" transform="translate(70.000000, 28.000000) scale(-1, 1) translate(-70.000000, -28.000000) ">
                <polygon id="Path" points="58.3333333 21.0643939 67.666287 21.0643939 67.666287 25.7196969 58.3333333 25.7196969"></polygon>
                <path d="M137.99764,14.1060606 L122.147759,11.8484848 C119.257677,10.0776514 116.258409,8.49242422 113.166097,7.10132584 C102.953966,2.48768946 91.8702526,0.107007515 80.6583659,0.119318303 L77.905002,0.119318303 C64.6736655,0.128787879 51.6540527,3.44034085 40.0329589,9.75189383 L32.0339627,14.1041668 C22.6706273,14.2092803 13.4876846,16.6931818 5.35291896,21.3181818 C2.04698351,23.2092802 0.00569661458,26.7178031 0,30.5179925 L0,44.3371212 C0,45.6231059 1.04437934,46.6647728 2.33371298,46.6647728 L10.1684572,46.6647728 C12.7167425,53.9157198 20.6758625,57.7339016 27.9456922,55.1922349 C31.947564,53.7935607 35.0930446,50.655303 36.4953614,46.6647728 L98.8353135,46.6647728 C101.383599,53.9157198 109.34272,57.7339016 116.612549,55.1922349 C120.613471,53.7935607 123.759901,50.655303 125.162218,46.6647728 L125.999621,46.6647728 C126.296794,46.6647728 126.591118,46.6089016 126.867404,46.4990531 L134.424913,43.4744318 C137.801107,42.1410984 140.012342,38.8816289 140,35.2613636 L140,16.4100378 C140,15.252841 139.146457,14.2708334 137.99764,14.1060606 Z M32.4773492,43.872159 C31.4453125,48.9090909 26.5148927,52.158144 21.4648438,51.1287878 C16.4138455,50.0994318 13.1563313,45.1818181 14.188368,40.1439394 C15.2213542,35.1070075 20.151774,31.8579545 25.2018229,32.8873105 C29.5473903,33.7727272 32.6672364,37.5861743 32.666287,42.0104167 C32.666287,42.6354167 32.6026748,43.2594696 32.4773492,43.872159 Z M74.6664765,42.0104167 L37.3327636,42.0104167 C37.3327636,34.2982955 31.0655382,28.0464015 23.3333333,28.0464015 C15.6011285,28.0464015 9.3329537,34.2982955 9.3329537,42.0104167 L4.66647684,42.0104167 L4.66647684,30.5179925 C4.66932521,28.3863637 5.81434462,26.4176136 7.66954223,25.3589016 C15.2840168,21.0227272 23.8991971,18.7405304 32.666287,18.7376895 L74.6664765,18.7376895 L74.6664765,42.0104167 Z M74.6664765,14.0833333 L41.8178982,14.0833333 L42.2679308,13.8380681 C52.2436522,8.43087126 63.3245171,5.36553018 74.6664765,4.87594691 L74.6664765,14.0833333 Z M79.3329537,4.77362873 L80.6536185,4.77367418 C90.0568305,4.76325769 99.3745935,6.54356073 108.108453,10.0198863 L104.034424,14.0833333 L79.3329537,14.0833333 L79.3329537,4.77362873 Z M121.144206,43.872159 C120.112169,48.9090909 115.181749,52.158144 110.130751,51.1287878 C105.080702,50.0994318 101.823188,45.1818181 102.855225,40.1439394 C103.887261,35.1070075 108.818631,31.8579545 113.868679,32.8873105 C118.214247,33.7727272 121.334093,37.5861743 121.333143,42.0104167 C121.333143,42.6354167 121.269531,43.2594696 121.144206,43.872159 Z M135.333524,21.0643939 L128.333333,21.0643939 L128.333333,25.7196969 L135.333524,25.7196969 L135.333524,35.2613636 C135.33922,36.9763258 134.291043,38.5198863 132.692193,39.1496213 L125.999621,41.8304923 C125.999621,41.6164774 125.972087,41.4043561 125.957845,41.1903409 C125.943604,40.9763258 125.938856,40.7253789 125.91607,40.4924242 C125.892334,40.2594696 125.845812,40.0265151 125.808784,39.7945076 C125.770806,39.5615529 125.743273,39.3285985 125.69675,39.1174242 C125.650228,38.905303 125.581868,38.6704546 125.521105,38.4488635 C125.460341,38.2282196 125.413819,38.0047348 125.34356,37.7878788 C125.274251,37.5719697 125.189751,37.3645833 125.110948,37.1524621 C125.031196,36.9412877 124.959038,36.722538 124.877387,36.5123105 C124.795735,36.3030303 124.685601,36.1126895 124.58781,35.9147729 C124.490017,35.716856 124.394124,35.5 124.284939,35.3001893 C124.174805,35.1003787 124.051378,34.9299243 123.945991,34.7443181 C123.841553,34.5577651 123.713379,34.3456439 123.580458,34.155303 C123.446588,33.9640151 123.323161,33.813447 123.194987,33.6410984 C123.066813,33.4687501 122.92155,33.2660984 122.772488,33.0871212 C122.623427,32.908144 122.483859,32.7679925 122.338596,32.6212121 C122.194282,32.4753789 122.032877,32.2774621 121.872423,32.1145833 C121.711019,31.9517045 121.552463,31.8229166 121.392009,31.6789772 C121.230605,31.5350378 121.057807,31.3645833 120.880263,31.2130681 C120.703668,31.0624999 120.523275,30.9460228 120.34668,30.813447 C120.169135,30.6808713 119.991591,30.5388257 119.805501,30.4147729 C119.618463,30.2916667 119.408637,30.1827651 119.208306,30.0520834 C119.007026,29.9214014 118.843723,29.8191287 118.654785,29.719697 C118.465848,29.6193183 118.230387,29.5142046 118.015815,29.4119319 C117.801242,29.3096591 117.633192,29.2187501 117.43476,29.1354167 C117.236328,29.0511365 116.967638,28.9630681 116.735026,28.8797348 C116.501465,28.7954545 116.349555,28.7301137 116.151123,28.6676136 C115.885281,28.5861743 115.612793,28.527462 115.341254,28.4602274 C115.16371,28.4185605 114.993761,28.3626895 114.814317,28.3257576 C114.527588,28.2670453 114.233263,28.2348485 113.941786,28.1922349 C113.768989,28.1695077 113.603787,28.1316288 113.43099,28.1155302 C112.963867,28.0691287 112.497694,28.0435607 112.007785,28.0435607 C104.278429,28.0511365 98.015001,34.2982955 98.007406,42.0075758 L79.3339029,42.0075758 L79.3339029,18.7367423 L105,18.7367423 C105.619032,18.7367423 106.212429,18.4914773 106.64917,18.0549241 L112.699924,12.0198863 C115.239664,13.2253789 117.709147,14.5729166 120.096978,16.0558713 C120.372314,16.2272727 120.679931,16.3399622 121.001791,16.3863636 L135.333524,18.4270834 L135.333524,21.0643939 Z" id="Shape"></path>
            </g>
        </g>
    </g>
</svg>