<?xml version="1.0" encoding="UTF-8"?>
<svg width="24px" height="24px" viewBox="0 0 24 24" version="1.1" xmlns="http://www.w3.org/2000/svg" xmlns:xlink="http://www.w3.org/1999/xlink">
    <!-- Generator: Sketch 53.1 (72631) - https://sketchapp.com -->
    <title>discount</title>
    <desc>Created with Sketch.</desc>
    <g id="Mansi" stroke="none" stroke-width="1" fill="none" fill-rule="evenodd">
        <g id="01_Homepage-Menu" transform="translate(-153.000000, -420.000000)" fill-rule="nonzero">
            <g id="1" transform="translate(0.000000, 157.000000)">
                <g id="discount" transform="translate(153.000000, 263.000000)">
                    <path d="M12,24 C18.6168391,24 24,18.6168391 24,12 C24,5.38316087 18.6168391,0 12,0 C5.38316087,0 0,5.38316087 0,12 C0,18.6168391 5.38316087,24 12,24 Z M12,1.07006369 C18.026871,1.07006369 22.9299363,5.97312902 22.9299363,12 C22.9299363,18.026871 18.026871,22.9299363 12,22.9299363 C5.97312902,22.9299363 1.07006369,18.026871 1.07006369,12 C1.07006369,5.97312902 5.97312902,1.07006369 12,1.07006369 Z" id="Shape" fill="#6D3078"></path>
                    <path d="M8.82643309,10.4899482 C9.93113597,10.4899482 10.8264331,9.59444192 10.8264331,8.490083 C10.8267026,7.38545454 9.93113597,6.48994823 8.82643309,6.48994823 C7.72173021,6.48994823 6.82643312,7.38545454 6.82643312,8.48981353 C6.82751114,9.59390298 7.72226926,10.4886008 8.82643309,10.4899482 Z M8.82643309,7.45579071 C9.39751517,7.45579071 9.86052551,7.91876992 9.86052551,8.48981353 C9.86079506,9.0611266 9.39778466,9.52410575 8.82643309,9.52410575 C8.25535108,9.52410575 7.79234067,9.0611266 7.79234067,8.48981353 C7.79287965,7.91903939 8.25562057,7.45659919 8.82643309,7.45579071 Z" id="Shape" fill="#F37435"></path>
                    <path d="M12.6078822,15.2129134 C12.6078822,16.3175419 13.5033885,17.2127787 14.6077474,17.2127787 C15.7123759,17.2127787 16.6078822,16.3175419 16.6078822,15.2129134 C16.6078822,14.108285 15.7123759,13.2127787 14.6077474,13.2127787 C13.5036579,13.2141261 12.6092296,14.108824 12.6078822,15.2129134 Z M15.6420397,15.2129134 C15.6420397,15.783957 15.1790605,16.2469362 14.6077474,16.2469362 C14.0367038,16.2469362 13.5737246,15.783957 13.5737246,15.2129134 C13.5737246,14.6418698 14.0367038,14.1788907 14.6077474,14.1786212 C15.178791,14.1794296 15.6412312,14.6418698 15.6420397,15.2129134 Z" id="Shape" fill="#F37435"></path>
                    <path d="M7.9363493,18.576164 C8.194353,18.7419197 8.54012158,18.670225 8.7081819,18.4162298 L16.5920784,6.51552813 C16.7013176,6.350998 16.713144,6.14173535 16.6232007,5.9664818 C16.532946,5.7912281 16.3546154,5.67663923 16.1554328,5.66622201 C15.9562501,5.65580488 15.7664042,5.75078503 15.6577874,5.91562144 L7.77389095,17.8163231 C7.60551943,18.0706247 7.67834561,18.4107149 7.9363493,18.576164 Z" id="Path" fill="#F37435"></path>
                </g>
            </g>
        </g>
    </g>
</svg>