<?xml version="1.0" encoding="UTF-8"?>
<svg width="30px" height="32px" viewBox="0 0 30 32" version="1.1" xmlns="http://www.w3.org/2000/svg" xmlns:xlink="http://www.w3.org/1999/xlink">
    <!-- Generator: Sketch 53.2 (72643) - https://sketchapp.com -->
    <title>1</title>
    <desc>Created with Sketch.</desc>
    <g id="changes" stroke="none" stroke-width="1" fill="none" fill-rule="evenodd">
        <g id="01_Homepage" transform="translate(-1035.000000, -84.000000)" fill-rule="nonzero">
            <g id="1" transform="translate(1035.000000, 84.000000)">
                <path d="M29.5081967,18.8235294 C29.5057206,20.5699308 28.7786884,22.2439397 27.4868852,23.4776471 C27.2990722,23.6641656 27.0986394,23.83866 26.8868852,24 C25.430749,27.124887 22.7190687,29.5557861 19.3654142,30.7426596 C16.0117598,31.9295331 12.2995891,31.7720638 9.06885246,30.3058824 C7.29307225,31.1149469 5.35041027,31.5330298 3.38360656,31.5294118 C2.66515622,31.5304827 1.94788113,31.473813 1.23934426,31.36 C3.19671752,30.9991311 4.98015582,30.043554 6.32459016,28.6352941 C4.72840152,27.3873593 3.45865388,25.8001582 2.61639344,24 C1.07378673,22.8331849 0.126164037,21.0909337 0.0124576031,19.2125351 C-0.101248831,17.3341365 0.629812004,15.4988462 2.02131148,14.1694118 L2.16885246,14.0376471 C2.30925336,13.8985289 2.45873371,13.7680709 2.61639344,13.6470588 C3.91328155,10.8765871 6.20151007,8.6403389 9.06885246,7.34117647 C10.6193891,6.63341411 12.3007337,6.22561285 14.0163934,6.14117647 L14.0163934,4.09411765 C13.1435268,3.75625712 12.6432504,2.87393957 12.8231082,1.98956786 C13.0029659,1.10519615 13.8125198,0.466776827 14.7540984,0.466776827 C15.6956769,0.466776827 16.5052308,1.10519615 16.6850885,1.98956786 C16.8649463,2.87393957 16.3646699,3.75625712 15.4918033,4.09411765 L15.4918033,6.14117647 C20.4598106,6.40276896 24.8581225,9.29991457 26.8868852,13.6470588 C28.5432993,14.8971685 29.5093538,16.8048976 29.5081967,18.8235294 Z" id="Path" fill="#F37435"></path>
                <rect id="Rectangle" fill="#FFFFFF" x="3.38360656" y="13.5952941" width="23.1147541" height="10.4564706" rx="5.22823529"></rect>
                <ellipse id="Oval" fill="#6D3078" cx="9.9" cy="18.8235294" rx="1.4704918" ry="1.40705882"></ellipse>
                <ellipse id="Oval" fill="#6D3078" cx="19.9819672" cy="18.8235294" rx="1.4704918" ry="1.40705882"></ellipse>
            </g>
        </g>
    </g>
</svg>