<?xml version="1.0" encoding="UTF-8"?>
<svg width="24px" height="24px" viewBox="0 0 24 24" version="1.1" xmlns="http://www.w3.org/2000/svg" xmlns:xlink="http://www.w3.org/1999/xlink">
    <!-- Generator: Sketch 53.1 (72631) - https://sketchapp.com -->
    <title>Shape</title>
    <desc>Created with Sketch.</desc>
    <g id="BR14_Manage-Limits" stroke="none" stroke-width="1" fill="none" fill-rule="evenodd">
        <g id="02" transform="translate(-24.000000, -24.000000)" fill="#6D3078">
            <path d="M37.8627224,36.0276635 L47.694751,26.0018708 C48.1177508,25.5404222 48.0988813,24.8267305 47.6520888,24.3882796 C47.2052963,23.9498288 46.4913913,23.9444269 46.0380154,24.3760665 L36.2214704,34.3863754 L26.0023542,24.3605827 C25.7097907,24.0532729 25.2729169,23.9299916 24.8628689,24.0390316 C24.4528209,24.1480716 24.1348832,24.4720724 24.0336011,24.8841136 C23.932319,25.2961548 24.0638178,25.7306345 24.3765857,26.0173546 L34.5802184,36.0276635 L24.3765857,46.0379723 C23.9449556,46.4913582 23.9503573,47.2052788 24.3887985,47.6520811 C24.8272398,48.0988835 25.5409158,48.1177534 26.0023542,47.6947442 L36.2214704,37.6689515 L46.0380154,47.6792604 C46.4913913,48.1109 47.2052963,48.1054982 47.6520888,47.6670473 C48.0988813,47.2285964 48.1177508,46.5149047 47.694751,46.0534562 L37.8627224,36.0276635 Z" id="Shape"></path>
        </g>
    </g>
</svg>