<?xml version="1.0" encoding="UTF-8"?>
<svg width="30px" height="32px" viewBox="0 0 30 32" version="1.1" xmlns="http://www.w3.org/2000/svg" xmlns:xlink="http://www.w3.org/1999/xlink">
    <!-- Generator: Sketch 53.2 (72643) - https://sketchapp.com -->
    <title>1</title>
    <desc>Created with Sketch.</desc>
    <g id="changes" stroke="none" stroke-width="1" fill="none" fill-rule="evenodd">
        <g id="01_Homepage_Dropdown" transform="translate(-97.000000, -239.000000)">
            <g id="1" transform="translate(78.000000, 140.000000)">
                <g transform="translate(20.000000, 100.000000)">
                    <g transform="translate(0.000000, 0.000000)" stroke="#6D3078">
                        <path d="M26.4353925,19.127774 C26.4353925,19.127774 20.4730827,29.5292535 18.7624508,30 L8.97906095,30 C7.26877487,29.5292535 1.31234474,19.127774 1.31234474,19.127774 C-0.948207309,15.1220578 0.39754055,13.0114324 0.39754055,13.0114324 C0.457374624,10.8429724 10.7851507,4.04068594 10.7851507,4.04068594 C11.0601108,3.29623403 10.5098448,3.46503026 10.444477,2.48251513 C10.3901767,1.6395427 11.7895331,1.83120377 11.7895331,1.83120377 L13.8709288,0 L15.9578583,1.83120377 C15.9578583,1.83120377 17.3572147,1.6395427 17.2973806,2.48251513 C17.2320127,3.46503026 16.6872806,3.29623403 16.9625865,4.04068594 C16.9625865,4.04068594 27.2907085,10.8429724 27.3505425,13.0114324 C27.3505425,13.0114324 28.6955987,15.1220578 26.4353925,19.127774 Z" id="Stroke-1"></path>
                        <path d="M19.4190601,11.8631291 C19.4190601,11.8631291 14.8979083,10.4101821 13.5602833,10.5618955 C12.2216124,10.4101821 7.70098364,11.8631291 7.70098364,11.8631291 C7.24918222,11.9640768 6.79685788,11.4190758 6.97778762,10.3092344 C7.13570895,9.34877228 12.0396369,8.3807245 13.2779074,8.15082044 C13.4651122,8.11639319 13.6549315,8.11639319 13.8421363,8.15082044 C15.0809298,8.3807245 19.9843348,9.34877228 20.1422561,10.3092344 C20.3142962,11.4190758 19.8708615,11.9640768 19.4190601,11.8631291 Z" id="Stroke-3"></path>
                    </g>
                    <g id="locked" transform="translate(10.000000, 15.000000)" fill="#F37435" fill-rule="nonzero" stroke="#F37435" stroke-width="0.5">
                        <path d="M7.41942149,3.72462963 L7.41942149,2.68518519 C7.41942149,1.20462963 6.01793182,0 4.29545455,0 C2.57297727,0 1.1714876,1.20462963 1.1714876,2.68518519 L1.1714876,3.72462963 C0.50744938,3.83314815 0,4.38203704 0,5.04259259 L0,8.66148148 C0,9.39944444 0.63318905,10 1.41144731,10 L7.17946178,10 C7.95772004,10 8.59090909,9.39944444 8.59090909,8.6612963 L8.59090909,5.04240741 C8.59090909,4.38203704 8.08345971,3.83314815 7.41942149,3.72462963 Z M1.56198347,2.68518519 C1.56198347,1.4087037 2.7881405,0.37037037 4.29545455,0.37037037 C5.8027686,0.37037037 7.02892562,1.4087037 7.02892562,2.68518519 L7.02892562,3.7037037 L1.56198347,3.7037037 L1.56198347,2.68518519 Z M8.20041322,8.6612963 C8.20041322,9.19518519 7.74236157,9.62962963 7.17946178,9.62962963 L1.41144731,9.62962963 C0.848547521,9.62962963 0.390495868,9.19518519 0.390495868,8.6612963 L0.390495868,5.04240741 C0.390495868,4.50851852 0.848547521,4.07407407 1.41144731,4.07407407 L7.17946178,4.07407407 C7.74236157,4.07407407 8.20041322,4.50851852 8.20041322,5.04240741 L8.20041322,8.6612963 Z" id="Shape"></path>
                        <path d="M4.29545455,5.18518519 C3.8647376,5.18518519 3.51446281,5.51740741 3.51446281,5.92592593 L3.51446281,7.03703704 C3.51446281,7.44555556 3.8647376,7.77777778 4.29545455,7.77777778 C4.72617149,7.77777778 5.07644628,7.44555556 5.07644628,7.03703704 L5.07644628,5.92592593 C5.07644628,5.51740741 4.72617149,5.18518519 4.29545455,5.18518519 Z M4.68595041,7.03703704 C4.68595041,7.2412963 4.51081302,7.40740741 4.29545455,7.40740741 C4.08009607,7.40740741 3.90495868,7.2412963 3.90495868,7.03703704 L3.90495868,5.92592593 C3.90495868,5.72166667 4.08009607,5.55555556 4.29545455,5.55555556 C4.51081302,5.55555556 4.68595041,5.72166667 4.68595041,5.92592593 L4.68595041,7.03703704 Z" id="Shape"></path>
                    </g>
                </g>
            </g>
        </g>
    </g>
</svg>