<?xml version="1.0" encoding="UTF-8"?>
<svg width="28px" height="18px" viewBox="0 0 28 18" version="1.1" xmlns="http://www.w3.org/2000/svg" xmlns:xlink="http://www.w3.org/1999/xlink">
    <!-- Generator: Sketch 53.1 (72631) - https://sketchapp.com -->
    <title>7</title>
    <desc>Created with Sketch.</desc>
    <g id="Mansi" stroke="none" stroke-width="1" fill="none" fill-rule="evenodd">
        <g id="01_Homepage-Menu" transform="translate(-153.000000, -353.000000)">
            <g id="1" transform="translate(0.000000, 157.000000)">
                <g id="7" transform="translate(153.000000, 196.000000)">
                    <path d="M0.5,0.5 L0.5,17.5 L27.5,17.5 L27.5,10 C27.5,4.75329488 23.2467051,0.5 18,0.5 L0.5,0.5 Z" id="Rectangle" stroke="#6D3078"></path>
                    <path d="M10.7919479,11.1067966 L3.97599201,11.1067966 C3.66245804,11.1067966 3.40797794,11.3552177 3.40797794,11.6612865 C3.40797794,11.9673554 3.66245804,12.2157245 3.97599201,12.2157245 L10.7919479,12.2157245 C11.1054819,12.2157245 11.359962,11.9673034 11.359962,11.6612346 C11.359962,11.3551657 11.1054819,11.1067966 10.7919479,11.1067966 Z" id="Path" fill="#6D3078"></path>
                    <path d="M10.7919479,13.3246524 L3.97599201,13.3246524 C3.66245804,13.3246524 3.40797794,13.5730734 3.40797794,13.8791423 C3.40797794,14.1852112 3.66245804,14.4336322 3.97599201,14.4336322 L10.7919479,14.4336322 C11.1054819,14.4336322 11.359962,14.1852112 11.359962,13.8791423 C11.3599087,13.5730734 11.1054819,13.3246524 10.7919479,13.3246524 Z" id="Path" fill="#6D3078"></path>
                    <path d="M22.1518566,9.99781676 L21.0158817,9.99781676 C20.076398,9.99781676 19.3118927,10.7441196 19.3118927,11.6612346 L19.3118927,12.7701624 C19.3118927,13.6872775 20.076398,14.4335802 21.0158817,14.4335802 L22.1518566,14.4335802 C23.0913403,14.4335802 23.8558456,13.6872775 23.8558456,12.7701624 L23.8558456,11.6612346 C23.8558456,10.7441715 23.0913403,9.99781676 22.1518566,9.99781676 Z M22.7198707,12.7702144 C22.7198707,13.0762833 22.4653906,13.3247044 22.1518566,13.3247044 L21.0158817,13.3247044 C20.7023477,13.3247044 20.4478676,13.0762833 20.4478676,12.7702144 L20.4478676,11.6612865 C20.4478676,11.3552177 20.7023477,11.1067966 21.0158817,11.1067966 L22.1518566,11.1067966 C22.4653906,11.1067966 22.7198707,11.3552177 22.7198707,11.6612865 L22.7198707,12.7702144 Z" id="Shape" fill="#F37435" fill-rule="nonzero"></path>
                    <path d="M0.5,5.83333333 L0.5,8.16666667 L27.1415069,8.16666667 L26.3691125,5.83333333 L0.5,5.83333333 Z" id="Rectangle" stroke="#6D3078"></path>
                </g>
            </g>
        </g>
    </g>
</svg>