<?xml version="1.0" encoding="UTF-8"?>
<svg width="100px" height="100px" viewBox="0 0 100 100" version="1.1" xmlns="http://www.w3.org/2000/svg" xmlns:xlink="http://www.w3.org/1999/xlink">
    <!-- Generator: Sketch 53.2 (72643) - https://sketchapp.com -->
    <title>Artboard Copy</title>
    <desc>Created with Sketch.</desc>
    <defs>
        <polygon id="path-1" points="0 0.038865452 75.967288 0.038865452 75.967288 28.353622 0 28.353622"></polygon>
        <polygon id="path-3" points="0.070321517 0.00596488988 27.9979491 0.00596488988 27.9979491 27.8205838 0.070321517 27.8205838"></polygon>
    </defs>
    <g id="Artboard-Copy" stroke="none" stroke-width="1" fill="none" fill-rule="evenodd">
        <g id="Group-151" transform="translate(13.000000, 20.000000)">
            <path d="M43.0667487,40.6451682 C43.0454326,40.5945075 43.0094412,40.5430297 42.9667271,40.4907348 C42.9586106,40.4515136 42.999603,40.477661 43.0667487,40.6451682" id="Fill-1" fill="#000000"></path>
            <path d="M44.1423987,39.3775076 C44.1342002,39.3835076 44.1112444,39.3965076 44.0669726,39.4225076 C44.0645131,39.4235076 44.0621355,39.4245076 44.0604138,39.4265076 C44.0563146,39.4285076 44.0530352,39.4305076 44.0505756,39.4315076 C44.0408194,39.4355076 44.0333588,39.4395076 44.0277018,39.4435076 C44.0251603,39.4445076 44.0235206,39.4455076 44.0218809,39.4455076 C44.0235206,39.4445076 44.0244224,39.4435076 44.0259802,39.4425076 C44.0449187,39.4305076 44.1228043,39.3875076 44.1423987,39.3775076" id="Fill-3" fill="#000000"></path>
            <path d="M44.3113286,37.1545065 C44.2498399,37.0932234 44.1874494,37.0319402 44.124403,36.9706571 L44.124403,36.9682058 C44.1874494,37.0294889 44.2498399,37.0915074 44.3113286,37.1545065" id="Fill-5" fill="#000000"></path>
            <path d="M44.6622825,43.4037092 L44.6622825,43.4028921 C44.5172825,43.0997449 44.8412825,43.7313695 44.6622825,43.4037092" id="Fill-7" fill="#000000"></path>
            <path d="M45.6682621,47.2277592 C45.6672621,47.226125 45.6662621,47.2213041 45.6642621,47.2123159 C45.6632621,47.2082303 45.6622621,47.203246 45.6613621,47.198425 C45.6552621,47.1623906 45.6483621,47.1273366 45.6403621,47.092201 C45.6403621,47.090485 45.6403621,47.0889325 45.6392621,47.0872166 C45.6372621,47.0725904 45.6332621,47.0578824 45.6302621,47.0430928 C45.6312621,47.0448087 45.6323621,47.0471783 45.6332621,47.0504467 C45.6332621,47.0528981 45.6342621,47.0561665 45.6352621,47.0594349 C45.6493621,47.1076443 45.6682621,47.2171368 45.6682621,47.2277592" id="Fill-9" fill="#000000"></path>
            <path d="M49.9752481,37.8837755 C49.9512481,37.8867755 49.9321481,37.8887755 49.9182481,37.8907755 C49.9361481,37.8877755 49.9592481,37.8847755 49.9821481,37.8827755 C49.9802481,37.8837755 49.9772481,37.8837755 49.9752481,37.8837755" id="Fill-11" fill="#000000"></path>
            <path d="M50.0396631,37.876397 C50.0215631,37.879397 50.0036631,37.880397 49.9845631,37.882397 C50.0066631,37.879397 50.0265631,37.877397 50.0396631,37.876397" id="Fill-13" fill="#000000"></path>
            <path d="M59.3251933,37.8754356 C59.3141933,37.8744356 59.3131933,37.8744356 59.3221933,37.8744356 C59.3230933,37.8744356 59.3241933,37.8744356 59.3251933,37.8754356" id="Fill-15" fill="#000000"></path>
            <path d="M65.2575927,39.4016466 C65.2216013,39.3796466 65.1830684,39.3556466 65.1534718,39.3496466 C65.3559745,39.3756466 65.3503176,39.4296466 65.2575927,39.4016466" id="Fill-17" fill="#000000"></path>
            <path d="M68.4222013,41.2041038 C68.3993013,41.1881038 68.3772013,41.1730038 68.3602013,41.1631038 L68.3592013,41.1621038 C68.3122013,41.1190038 68.3622013,41.1561038 68.4222013,41.2041038" id="Fill-19" fill="#000000"></path>
            <path d="M70.3930666,43.1839479 C70.3930666,43.1830491 70.3930666,43.1830491 70.392222,43.182232 C70.3896882,43.1789635 70.3871545,43.1756951 70.3837761,43.1724267 C70.3305671,43.1013383 70.3119862,43.0752725 70.3119862,43.0735566 C70.3162091,43.0728212 70.4631673,43.2623903 70.3930666,43.1839479" id="Fill-21" fill="#000000"></path>
            <path d="M71.7433488,45.4963478 C71.7403488,45.4898109 71.7372488,45.4840912 71.7343488,45.4783714 C71.7323488,45.475103 71.7313488,45.4726516 71.7292488,45.4693832 C71.7243488,45.460395 71.7212488,45.453041 71.7183488,45.4472396 C71.6803488,45.369696 71.6533488,45.3141327 71.7292488,45.4579437 C71.8122488,45.618914 71.7752488,45.5543625 71.7433488,45.4963478" id="Fill-23" fill="#000000"></path>
            <path d="M72.5239797,55.79084 C72.5207003,55.79384 72.5182408,55.79584 72.5156992,55.79774 C72.4969247,55.80484 72.4812656,55.81084 72.4755266,55.81084 C72.5058611,55.77984 72.5534123,55.73984 72.5887478,55.73074 C72.5830088,55.73784 72.5771879,55.74384 72.5731707,55.74884 C72.5575115,55.76084 72.5420164,55.77484 72.5239797,55.79084" id="Fill-25" fill="#000000"></path>
            <path d="M72.5592027,55.7748982 C72.5643027,55.7679982 72.5723027,55.7608982 72.5822027,55.7519982 C72.5893027,55.7478982 72.5962027,55.7429982 72.6042027,55.7389982 C72.5893027,55.7508982 72.5702027,55.7658982 72.5592027,55.7748982" id="Fill-27" fill="#000000"></path>
            <path d="M45.3142895,55.800446 C45.3162895,55.799346 45.3182895,55.798346 45.3211895,55.797446 C45.3152895,55.798346 45.3091895,55.800446 45.3041895,55.801446 C45.3072895,55.800446 45.3112895,55.800446 45.3142895,55.800446 L45.3142895,55.800446 Z M45.4091759,55.7961873 L45.4112759,55.7961873 C45.4162759,55.7951873 45.4122759,55.7951873 45.3942759,55.7951873 C45.3992759,55.7951873 45.4042759,55.7951873 45.4091759,55.7961873 L45.4091759,55.7961873 Z M45.4400845,55.7632403 C45.4100845,55.7722403 45.3810845,55.7812403 45.3520845,55.7892403 C45.3541845,55.7951403 45.3661845,55.7972403 45.3881845,55.7911403 C45.3890845,55.7902403 45.3900845,55.7902403 45.3921845,55.7892403 C45.4060845,55.7842403 45.4251845,55.7751403 45.4471845,55.7612403 C45.4451845,55.7612403 45.4440845,55.7612403 45.4430845,55.7621403 C45.4421845,55.7632403 45.4411845,55.7632403 45.4400845,55.7632403 L45.4400845,55.7632403 Z M45.5183145,55.7193033 C45.5072145,55.7254033 45.4973145,55.7313033 45.4862145,55.7374033 C45.4983145,55.7344033 45.5082145,55.7313033 45.5183145,55.7294033 C45.5192145,55.7284033 45.5202145,55.7273033 45.5213145,55.7284033 L45.5303145,55.7193033 L45.5282145,55.7193033 C45.5242145,55.7184033 45.5213145,55.7193033 45.5183145,55.7193033 L45.5183145,55.7193033 Z M45.5281085,55.7255556 C45.5391085,55.7225556 45.5481085,55.7215556 45.5540085,55.7215556 C45.5471085,55.7204556 45.5401085,55.7204556 45.5340085,55.7204556 C45.5321085,55.7225556 45.5300085,55.7244556 45.5281085,55.7255556 L45.5281085,55.7255556 Z M45.6411759,55.636892 C45.6501759,55.634792 45.6650759,55.614892 45.6831759,55.584792 C45.6850759,55.580892 45.6871759,55.576892 45.6900759,55.572892 C45.6740759,55.592792 45.6560759,55.613792 45.6371759,55.637792 C45.6381759,55.637792 45.6391759,55.637792 45.6411759,55.636892 L45.6411759,55.636892 Z M45.7464833,55.4421316 C45.7182363,55.4863372 45.6901709,55.5320952 45.683813,55.5410017 C45.6773643,55.5492545 45.6720056,55.5574256 45.6664652,55.5639625 C45.6783634,55.5533401 45.6891718,55.5418188 45.700071,55.530461 C45.700071,55.530461 45.7010701,55.530461 45.7010701,55.5296439 C45.7109702,55.5124846 45.7219602,55.4936094 45.7319511,55.4764502 C45.7319511,55.4764502 45.7319511,55.4757148 45.7328593,55.4748977 C45.7409429,55.460108 45.7491173,55.4454818 45.7563834,55.4332252 C45.7572917,55.4299567 45.7582908,55.4257895 45.759199,55.4209685 C45.7619238,55.4127974 45.7636495,55.4020933 45.7664652,55.3907355 C45.7600165,55.4078948 45.7536586,55.4250541 45.7473916,55.4405791 C45.7464833,55.4413962 45.7464833,55.4421316 45.7464833,55.4421316 L45.7464833,55.4421316 Z M45.8001523,53.1641157 C45.7942523,53.5734052 45.7902523,53.9819593 45.7902523,54.3889609 C45.7902523,54.6666959 45.8001523,54.9445944 45.7902523,55.2141584 L45.7902523,55.3220984 C45.7822523,55.341709 45.7732523,55.3629538 45.7631523,55.3841987 L45.7631523,55.3858329 C45.7642523,55.3914709 45.7652523,55.3964553 45.7671523,55.4012762 L45.7671523,55.4020933 C45.7671523,55.4038093 45.7682523,55.4053618 45.7692523,55.4070777 C45.7732523,55.4005408 45.7772523,55.3964553 45.7801523,55.394004 C45.7812523,55.3923697 45.7831523,55.3914709 45.7841523,55.3914709 L45.7841523,55.3907355 C45.7852523,55.3899184 45.7852523,55.3891013 45.7862523,55.3891013 C45.7872523,55.3874671 45.7892523,55.38665 45.7902523,55.3858329 C45.7921523,55.3841987 45.7942523,55.3825644 45.7961523,55.3816656 L45.7961523,55.3808485 C45.7971523,55.3775801 45.7971523,55.3735763 45.7971523,55.3694907 L45.7982523,55.3686736 L45.7982523,55.3588683 C45.8001523,55.3482459 45.8001523,55.3351722 45.8001523,55.3203825 L45.8001523,55.2623678 C45.8032523,55.2542785 45.8062523,55.2469245 45.8091523,55.2412047 L45.8091523,55.2345861 C45.8062523,55.2378546 45.8032523,55.2419401 45.8001523,55.2469245 L45.8001523,53.1641157 Z M49.0060338,55.7469947 C49.0511338,55.5181227 49.0751338,55.2827955 49.0751338,55.0426474 L49.0751338,55.0189513 C49.0650338,55.2649009 49.0451338,55.5075003 49.0060338,55.7469947 L49.0060338,55.7469947 Z" id="Fill-29" fill="#000000"></path>
            <path d="M62.0703912,20.9486735 C62.0635136,21.057113 62.0499627,21.1655525 62.0363438,21.273992 C62.0349138,21.2902579 62.032939,21.3051683 62.03219,21.3173678 C62.0649436,21.1248877 62.0118297,21.5267916 62.0315772,21.3227898 C62.0288534,21.3370224 62.0261296,21.3546439 62.0227248,21.375654 C61.9546301,21.7958571 61.8524879,22.2092827 61.7230398,22.6159308 C61.656375,22.8145107 61.5835136,23.0002133 61.5106522,23.1920157 C61.5120141,23.1893047 61.5133079,23.1865937 61.5147379,23.1838827 C61.5071794,23.2028596 61.4997571,23.2211588 61.4949904,23.2333582 C61.4970333,23.2265808 61.500438,23.2177701 61.5052047,23.2055706 C61.5071794,23.2008264 61.5086094,23.1967599 61.5106522,23.1920157 C61.4936285,23.2245475 61.4779668,23.2530129 61.4779668,23.2530129 C61.4303004,23.3614524 61.3758246,23.4698919 61.3213488,23.5715539 C61.1306835,23.9375372 60.9127802,24.2967431 60.6744486,24.6356165 C60.6444869,24.6749259 60.5532399,24.8267412 60.5423447,24.8402961 C60.5423447,24.8389406 60.5505161,24.8233524 60.5723064,24.7847208 C60.667571,24.6152841 60.5042117,24.8660505 60.4565454,24.9270477 C60.3135464,25.0964844 60.1637379,25.2591437 60.0139294,25.4218029 C59.8777399,25.5573523 59.7415504,25.6929017 59.5985514,25.8216736 C59.5236471,25.8894483 59.4418653,25.957223 59.3670292,26.0249976 C59.3329818,26.0521075 59.2989344,26.0792174 59.264887,26.1063273 C59.2308397,26.1334372 59.0129364,26.2622091 59.1967923,26.1673245 C59.3670292,26.0724399 59.1013915,26.2350992 59.0469838,26.2689865 C58.965202,26.3299837 58.8767469,26.3842035 58.7882237,26.4452007 C58.6043679,26.5671952 58.4068931,26.6824121 58.2161596,26.7908516 C58.0459227,26.8857362 57.8756858,26.9738433 57.6987076,27.0551729 C57.6442318,27.0822828 57.5897559,27.1026152 57.535212,27.1297251 C57.3990225,27.1974998 57.6578507,27.0755053 57.6510412,27.0822828 C57.6101844,27.14328 57.3854717,27.1839448 57.3173769,27.2110547 C56.9156178,27.3533815 56.5070493,27.4685985 56.0916712,27.5567056 C55.9827196,27.577038 55.8805775,27.5973704 55.7716259,27.6177028 C55.7266833,27.6258358 55.6966535,27.6312578 55.678336,27.6353242 C55.6912059,27.6339688 55.704212,27.6326133 55.71715,27.6312578 C55.9357342,27.6075366 55.5544036,27.6610786 55.676906,27.6353242 C55.4583219,27.6604009 55.2336772,27.6793778 55.0157059,27.6854775 C54.5595391,27.7058099 54.1033042,27.6787 53.6470693,27.6312578 C53.6422346,27.63058 53.638217,27.63058 53.6340632,27.6299023 C53.6361742,27.63058 53.638217,27.63058 53.6402599,27.6312578 C53.8935724,27.6712448 53.4039029,27.6068589 53.6307266,27.6299023 C53.5251797,27.6102476 53.4257614,27.5966927 53.3202145,27.577038 C53.0955018,27.5295957 52.870721,27.4821535 52.6528858,27.4143788 C52.4486016,27.360159 52.2443173,27.2923843 52.0468425,27.2178322 C51.9651288,27.1839448 51.8766056,27.1568349 51.7948919,27.1229476 C51.778481,27.1175256 51.7649302,27.1121037 51.7533541,27.1080372 C51.7622064,27.1134591 51.7724206,27.1188811 51.7819539,27.1243031 C51.71454,27.097871 51.6552976,27.0734721 51.752605,27.1080372 C51.7322447,27.0965155 51.715221,27.0863493 51.7063687,27.0822828 C51.3114191,26.8992911 50.9368979,26.6959671 50.5759957,26.4587557 C50.4874044,26.4045359 50.4057588,26.3435387 50.3171675,26.2825415 C50.2695692,26.2486541 49.9835712,26.0792174 50.1674271,26.1808794 C50.3444735,26.275764 50.0720944,26.1063273 50.0244281,26.0656625 C49.9359049,25.9911103 49.8473817,25.9097807 49.7588585,25.8352285 C49.4524321,25.5573523 49.1664341,25.2591437 48.9008646,24.9473801 C48.8600077,24.8999378 48.6897708,24.6288391 48.7850354,24.8050533 C48.8871775,24.9880449 48.7101992,24.6966138 48.6828932,24.6559489 C48.5603908,24.4865122 48.4514391,24.310298 48.3424194,24.1340838 C48.2335359,23.9578696 48.1313938,23.774878 48.035993,23.5918863 C47.9883948,23.4970018 47.9407284,23.4021172 47.8998035,23.3140101 C47.8821669,23.2787673 47.8692289,23.2428467 47.8528862,23.2076038 C47.854929,23.2137036 47.8569719,23.2198033 47.8590147,23.225903 C47.9134905,23.3953397 47.7160157,22.9209169 47.8453958,23.1920157 C47.8481196,23.1974376 47.8508434,23.2021819 47.8528862,23.2076038 C47.7179905,22.8138329 47.5716548,22.4268394 47.4708746,22.0195136 C47.4231402,21.809412 47.3755419,21.5993105 47.3414946,21.389209 C47.3319613,21.3322782 47.3258328,21.3017796 47.323109,21.2889024 C47.3244709,21.3044906 47.3258328,21.319401 47.3278756,21.3349892 C47.3325741,21.3803982 47.3346851,21.4007307 47.3346851,21.4054749 C47.3305994,21.3939532 47.3128948,21.2523041 47.322428,21.2868692 C47.3108519,21.1797852 47.2999567,21.0679569 47.2938282,20.9622284 C47.2597808,20.5216929 47.2597808,20.0811575 47.2938282,19.640622 C47.3006377,19.5321825 47.3142566,19.423743 47.3278756,19.3153035 C47.3299184,19.2983598 47.3312803,19.2834494 47.3325741,19.2705722 C47.2917854,19.4847402 47.3598801,19.0225168 47.3333232,19.2665057 C47.3340041,19.2651502 47.3340041,19.263117 47.3346851,19.2610837 C47.3755419,19.0374273 47.4163988,18.8069933 47.4708746,18.5901143 C47.5730167,18.1766887 47.7160157,17.7835955 47.8590147,17.3837249 C47.8617385,17.3769474 47.8630323,17.3715254 47.8651433,17.3667812 C47.8514562,17.3972798 47.8399482,17.4277784 47.8249673,17.458277 C47.7575535,17.5917932 47.8651433,17.3417046 47.8719527,17.3423823 C47.8719527,17.3444155 47.8699099,17.3518708 47.8651433,17.3667812 C47.8699099,17.356615 47.8739956,17.3464488 47.8794432,17.3362826 C47.9203,17.241398 47.9678982,17.1465135 48.0156327,17.0516289 C48.1177748,16.8550823 48.2267264,16.6585357 48.3424194,16.4687666 C48.4514391,16.2925524 48.5603908,16.1163382 48.6828932,15.9469015 C48.6944693,15.931991 48.7176897,15.8906485 48.7449276,15.8472727 C48.7095183,15.8750603 48.7891892,15.7523881 48.8314079,15.7334112 C48.8082557,15.7462884 48.7748893,15.7971194 48.7449276,15.8465949 C48.7530989,15.8398175 48.7680117,15.824907 48.7919129,15.7977972 C48.8327698,15.7503549 48.8668172,15.7029126 48.9008646,15.6622478 C49.1732436,15.3369293 49.4728605,15.0251657 49.7929059,14.740512 C49.8753006,14.6639266 50.025041,14.4850014 50.1517653,14.4090938 C50.091161,14.4490809 50.0754992,14.4972009 50.1742366,14.4287484 C50.208284,14.4016386 50.2490727,14.3745287 50.2831201,14.3541963 C50.3785209,14.2864216 50.480663,14.2186469 50.5759957,14.1576497 C50.9368979,13.9204383 51.3182285,13.7103367 51.7063687,13.5341226 C51.7165829,13.5293783 51.7261162,13.5246341 51.7363304,13.5198899 C51.6076313,13.5619102 51.9862381,13.4019619 51.8289392,13.4799028 C51.7996585,13.4948132 51.7696287,13.5056572 51.7404161,13.5185344 C51.7444336,13.5171789 51.7492684,13.5158234 51.754035,13.5137902 C51.8561771,13.4799028 51.9514417,13.439238 52.0468425,13.3985732 C52.2443173,13.324021 52.4486016,13.2630238 52.6528858,13.2020266 C52.8571701,13.1410294 53.0682639,13.0935871 53.2792895,13.0529223 C53.3883092,13.0325899 53.4904514,13.0122575 53.599403,12.9919251 C53.6218743,12.9885363 53.6402599,12.9851476 53.6552407,12.9824366 C53.4359756,13.0034467 53.8377347,12.9499047 53.6572836,12.9824366 C53.6695406,12.9817588 53.6845215,12.9797256 53.7015451,12.9783701 C54.1441611,12.9309278 54.586777,12.9105954 55.029393,12.9309278 C55.2472962,12.9377053 55.4651994,12.9580377 55.6899121,12.9783701 C55.7035311,12.9797256 55.7151072,12.9810811 55.7260024,12.9824366 C55.535337,12.9499047 55.9609293,13.0061577 55.7266833,12.9824366 C55.7321309,12.9831143 55.7382594,12.9837921 55.744388,12.9851476 C55.8668904,13.00548 55.9895291,13.0258124 56.1052221,13.0529223 C56.5206682,13.1410294 56.9360463,13.2562463 57.3309278,13.3985732 C57.4270095,13.4304273 57.5168946,13.4738031 57.6060306,13.5070127 C57.600583,13.5043017 57.5958845,13.5015907 57.5904369,13.498202 C57.6244843,13.5110792 57.6585317,13.5226009 57.665954,13.5266673 C57.6612554,13.5253119 57.6483174,13.5212454 57.6238033,13.5137902 C57.6176067,13.5117569 57.6122272,13.5097237 57.6060306,13.5070127 C57.6346304,13.5212454 57.6605745,13.5354781 57.6714016,13.5409 C57.8756858,13.6357846 58.0732287,13.7374466 58.2707036,13.8458861 C58.4409405,13.9407707 58.6043679,14.0356553 58.7677953,14.1440948 C58.8563185,14.1983145 58.9380322,14.2593117 59.0265554,14.3203089 C59.0742217,14.3541963 59.3874576,14.5439654 59.2104112,14.4490809 C59.0332968,14.3474188 59.3056758,14.523633 59.3534102,14.5642978 C59.4351239,14.6320725 59.5099601,14.6998472 59.5917419,14.7676219 C59.7551693,14.9167262 59.9185287,15.0658305 60.0684052,15.2284898 C60.2045947,15.3640391 60.3270972,15.506366 60.4565454,15.6554703 C60.4967213,15.7022348 60.6356346,15.8269403 60.6526583,15.889293 C60.6369965,15.8574389 60.4626739,15.6371711 60.5994763,15.8316845 C60.6335236,15.8791268 60.667571,15.9265691 60.7016184,15.9740113 C60.9536371,16.3264397 61.1715403,16.692423 61.3690151,17.0787388 C61.4166134,17.1736233 61.4643478,17.2685079 61.5052047,17.3633925 C61.5256331,17.4040573 61.539252,17.4447221 61.5596805,17.4853869 C61.6345847,17.6209363 61.5052047,17.3633925 61.5120141,17.3701699 C61.6208977,17.4379446 61.7026795,17.8852576 61.7435363,18.007252 C61.8789768,18.4247441 61.9736966,18.8490136 62.0554103,19.2868381 C62.03219,19.0577597 62.1037576,19.5470929 62.0567722,19.2949711 C62.0560913,19.2929378 62.0560913,19.2909046 62.0554103,19.2888714 C62.0560913,19.2929378 62.0560913,19.2970043 62.0567722,19.3017486 C62.0703912,19.4101881 62.0772006,19.5186276 62.0908196,19.6270671 C62.0908196,19.8168362 62.097561,20.0472701 62.097561,20.2844815 C62.097561,20.508138 62.0908196,20.725017 62.0703912,20.9486735 M61.1471058,23.1307692 C61.1712058,23.083008 61.1992058,23.0307692 61.2011058,23.0307692 C61.2062058,23.0382319 61.1761058,23.0867394 61.1471058,23.1307692 M51.8560976,26.7492452 C51.9045512,26.7732452 51.9529255,26.7962452 51.9560976,26.7962452 C51.9394441,26.8012452 51.897414,26.7772452 51.8560976,26.7492452 M57.5170732,12.9502552 C57.4709193,12.9302552 57.4256202,12.9102552 57.4170732,12.9042552 C57.4256202,12.8992552 57.4709193,12.9232552 57.5170732,12.9502552 M63.0302087,14.4885914 C61.7846961,12.762437 60.1079524,11.479761 58.1026353,10.7429045 C54.1948643,9.30330535 49.5136011,10.5723359 46.8787181,13.7858487 C45.5031723,15.4642439 44.6955978,17.4428399 44.5175892,19.5988273 C44.3534052,21.6524735 44.8735379,23.7811699 45.9411788,25.5414381 C46.9813759,27.253947 48.5486864,28.7003689 50.3896826,29.5259211 C52.4086189,30.4265234 54.5986516,30.6926104 56.7818403,30.2559547 C60.7991814,29.4645163 64.1184497,26.0394984 64.7343963,21.9936107 C64.8158382,21.4396039 64.8767484,20.8917375 64.8780488,20.3309078 L64.8780488,20.294065 C64.8603232,18.2404188 64.2375327,16.1615285 63.0302087,14.4885914" id="Fill-31" fill="#F37435"></path>
            <path d="M45.8306857,21.2061722 C45.8375857,21.2609185 45.8406857,21.2854317 45.8406857,21.2911515 C45.8346857,21.2772606 45.8086857,21.106485 45.8226857,21.1481575 C45.8226857,21.1489747 45.8226857,21.1497918 45.8236857,21.1506089 C45.8256857,21.1694024 45.8276857,21.1873787 45.8306857,21.2061722" id="Fill-33" fill="#000000"></path>
            <path d="M45.8380856,18.712358 C45.8380856,18.7139922 45.8380856,18.7156264 45.8369856,18.7172606 C45.7770856,18.9754668 45.8770856,18.418199 45.8380856,18.712358" id="Fill-35" fill="#000000"></path>
            <path d="M46.476306,23.4858959 C46.5562045,23.690173 46.2665722,23.1181973 46.4563313,23.4450405 C46.4603262,23.4515774 46.4643212,23.4572972 46.4673174,23.463834 C46.4703136,23.471188 46.4733098,23.478542 46.476306,23.4858959" id="Fill-37" fill="#000000"></path>
            <path d="M46.4933282,16.3925698 C46.4933282,16.3950228 46.4903734,16.404011 46.4833803,16.4219874 C46.4636813,16.4587572 46.4469372,16.4955271 46.4253669,16.532297 C46.3277587,16.6932673 46.4833803,16.3917544 46.4933282,16.3925698" id="Fill-39" fill="#000000"></path>
            <path d="M47.6317169,14.4527811 C47.6038421,14.4683062 47.5636695,14.5295893 47.5275141,14.5892382 L47.5275141,14.5900553 C47.484964,14.6235567 47.5808863,14.4756601 47.6317169,14.4527811" id="Fill-41" fill="#000000"></path>
            <path d="M51.1516112,28.1755688 C51.1625936,28.1835688 51.1751812,28.1915688 51.1870929,28.1995688 C51.1034573,28.1605688 51.0299593,28.1245688 51.1506819,28.1755688 L51.1516112,28.1755688 Z" id="Fill-43" fill="#000000"></path>
            <path d="M51.2406593,11.7412444 C51.2054058,11.7628892 51.1693325,11.7786309 51.134079,11.7973241 C51.1325213,11.798308 51.1307996,11.7992918 51.1292419,11.7992918 C50.9742084,11.8602908 51.4301264,11.6281011 51.2406593,11.7412444" id="Fill-45" fill="#000000"></path>
            <path d="M53.4419948,11.1460323 C53.441093,11.1460323 53.4402731,11.1470323 53.4395353,11.1460323 C53.1755439,11.1770323 53.6591728,11.0980323 53.4419948,11.1460323" id="Fill-47" fill="#000000"></path>
            <path d="M53.4214986,28.8053088 C53.7264824,28.8643088 53.136929,28.7693088 53.4099387,28.8033088 L53.414038,28.8033088 C53.4164975,28.8043088 53.4190391,28.8043088 53.4214986,28.8053088" id="Fill-49" fill="#000000"></path>
            <path d="M55.9220544,28.8020429 C56.1852259,28.7697123 55.7260285,28.8426871 55.8736013,28.8075853 C55.8908181,28.8057378 55.9063953,28.8038904 55.9220544,28.8020429 Z" id="Fill-51" fill="#000000"></path>
            <path d="M55.9334913,11.1458518 L55.9326714,11.1458518 C55.7031137,11.0978518 56.2155193,11.1808518 55.9334913,11.1458518" id="Fill-53" fill="#000000"></path>
            <path d="M58.1774261,11.7632213 C58.2225118,11.7822213 58.2675974,11.7992213 58.2774261,11.8052213 C58.2712043,11.8032213 58.2540717,11.7972213 58.2216101,11.7862213 C58.2134045,11.7832213 58.2062809,11.7802213 58.1980753,11.7762213 C58.1908616,11.7722213 58.1846398,11.7682213 58.1774261,11.7632213" id="Fill-55" fill="#000000"></path>
            <path d="M62.9078601,23.4497043 C62.9098601,23.4457043 62.9117601,23.4417043 62.9138601,23.4377043 C62.9027601,23.4657043 62.8918601,23.4927043 62.8848601,23.5107043 C62.8878601,23.5007043 62.8928601,23.4877043 62.8998601,23.4697043 C62.9027601,23.4627043 62.9048601,23.4567043 62.9078601,23.4497043" id="Fill-57" fill="#000000"></path>
            <path d="M63.5325313,21.1914479 L63.5325313,21.1906308 C63.5325313,21.1881795 63.5335313,21.1865453 63.5335313,21.1849111 C63.5815313,20.9528523 63.5035313,21.4373975 63.5325313,21.1914479" id="Fill-59" fill="#000000"></path>
            <path d="M63.5624586,18.7466684 C63.5614586,18.744217 63.5614586,18.7417657 63.5604586,18.7393144 L63.5604586,18.7368631 C63.5264586,18.4606805 63.6314586,19.0506326 63.5624586,18.7466684" id="Fill-61" fill="#000000"></path>
            <g id="Group-65" transform="translate(0.000000, 30.717304)">
                <mask id="mask-2" fill="white">
                    <use xlink:href="#path-1"></use>
                </mask>
                <g id="Clip-64"></g>
                <path d="M72.6960419,24.8073724 C72.6990419,24.7526261 72.7070419,24.7011483 72.7240419,24.7011483 C72.7240419,24.7011483 72.7100419,24.754342 72.6960419,24.8073724 L72.6960419,24.8073724 Z M72.696654,24.8402152 C72.697654,24.8361152 72.697654,24.8321152 72.697654,24.8291152 L72.697654,24.8281152 C72.698654,24.8262152 72.698654,24.8241152 72.699654,24.8232152 C72.699654,24.8251152 72.698654,24.8312152 72.696654,24.8402152 L72.696654,24.8402152 Z M72.6690602,24.8948029 L72.6690602,24.89562 C72.6608617,24.9160477 72.6510235,24.9373743 72.6387258,24.9545335 C72.6313471,24.965156 72.6256082,24.9749613 72.6198693,24.9830506 C72.61577,24.9871362 72.6108509,24.9912217 72.6059318,24.995389 C72.599373,25.001027 72.5936341,25.0067468 72.588797,25.0116494 C72.5928142,25.0108323 72.5969135,25.0100152 72.6010127,25.0100152 L72.6018326,25.0100152 C72.5928142,25.0255402 72.5862554,25.0362444 72.5821562,25.0443337 C72.5608401,25.0516877 72.5362447,25.0599405 72.5157484,25.0663957 C72.5034507,25.0753838 72.4927927,25.0827378 72.4837743,25.0884576 C72.4788552,25.0884576 72.4722964,25.0877222 72.464098,25.0868234 C72.4673773,25.0844538 72.4706567,25.0811853 72.474756,25.0770998 C72.4534399,25.0803682 72.4345834,25.0827378 72.4190063,25.0851891 L72.4173666,25.0851891 L72.3927711,25.0851891 C70.9334399,25.0362444 69.4659102,25.0851891 68.0065791,25.0851891 L50.0190926,25.0851891 C49.6788552,25.0851891 49.3377981,25.0819207 48.995921,25.0779169 L48.9951012,25.0779169 C48.9967409,25.0655786 48.9992004,25.0525048 49.00166,25.0403299 C49.0024798,25.0370615 49.0024798,25.033793 49.0032997,25.0297075 C49.0352738,24.7902131 49.0516708,24.547532 49.0598693,24.3016641 L49.0598693,21.0241614 C49.0598693,20.4065093 49.0574097,19.7886938 49.0442921,19.1717771 C49.0401929,18.9650487 49.0344539,18.7591374 49.0270753,18.554125 C48.9508293,16.271043 48.6901994,14.013373 47.8218973,11.8562073 C47.2816168,10.5079788 46.5880246,9.24391242 45.7312824,8.09097274 C45.7370214,8.08860313 45.7435802,8.08607009 45.7501389,8.08443588 C46.2527064,7.92673399 46.7601929,7.78545598 47.2725985,7.66444226 C47.9284777,7.5091917 48.5925553,7.37845439 49.256633,7.26405924 C49.4206028,7.23954599 49.5845726,7.21503275 49.7485424,7.1905195 C49.8436449,7.17499445 49.9313687,7.16682336 50.0257333,7.1504812 C50.0108941,7.15293252 49.9961368,7.15374963 49.9805597,7.15538385 C49.9985963,7.15293252 50.0149933,7.15129831 50.0257333,7.1504812 C50.0281109,7.1504812 50.0313903,7.1504812 50.0338498,7.14966409 C50.3954032,7.11134172 50.7569566,7.06631906 51.1258887,7.03526894 C52.6016168,6.90453163 54.0855435,6.85550514 55.5694701,6.88818947 C56.2991357,6.90453163 57.0288013,6.93721596 57.7666654,6.99441353 C58.1028035,7.01892678 58.430743,7.05161111 58.7668811,7.08437715 C58.9308509,7.1006376 59.0948207,7.11697976 59.2587905,7.14149301 C59.2768272,7.14312723 59.2948639,7.14566026 59.3129005,7.14802988 C59.3137204,7.14802988 59.3145402,7.14802988 59.3153601,7.14892869 C59.3161799,7.14802988 59.3178196,7.14802988 59.3186395,7.14892869 C59.3202792,7.14892869 59.3227387,7.14892869 59.3243784,7.14966409 C59.3317571,7.14966409 59.3399556,7.1504812 59.3473342,7.15219713 C59.3424151,7.15129831 59.3383159,7.15129831 59.3342166,7.15129831 C59.3825877,7.15783517 59.484249,7.1700918 59.5211422,7.17417734 C60.8329005,7.36211222 62.1364604,7.63175793 63.3990278,8.01579879 C64.0139146,8.20373367 64.6124043,8.41618181 65.2026956,8.65314319 C65.2231918,8.66131427 65.2420483,8.66785113 65.2576255,8.67120128 C65.2215521,8.65314319 65.1830192,8.6336143 65.1535046,8.62862994 C65.3560073,8.64987475 65.3502684,8.6939986 65.2576255,8.67120128 C65.2822209,8.68337619 65.3059965,8.69563281 65.3256729,8.70216968 C65.4568488,8.75944896 65.5880246,8.81656483 65.7192004,8.88201519 C66.0143461,9.02084188 66.3012932,9.16800306 66.5882403,9.32317191 C67.0801497,9.59289933 67.5638606,9.88697657 68.0311745,10.2057305 C68.1295564,10.2791885 68.2361368,10.35281 68.3345187,10.426268 C68.3377981,10.4279839 68.3443569,10.4319877 68.354195,10.4377892 C68.3156621,10.4025718 68.3566546,10.4328049 68.4058455,10.4721078 C68.387071,10.4589523 68.3689523,10.4466957 68.3550149,10.4385246 C68.3681325,10.4516801 68.3910882,10.4703918 68.424702,10.4998077 C68.6296643,10.6714004 68.8346265,10.8348221 69.0231918,11.0145859 C69.4085208,11.3659424 69.7774529,11.7418939 70.1217894,12.1421952 C70.2037743,12.2321588 70.2775607,12.3302118 70.3595456,12.4281831 C70.3677441,12.4388872 70.3752047,12.4477937 70.3816816,12.4551477 C70.3300311,12.3840592 70.3119944,12.3579935 70.3119944,12.3562776 C70.3160936,12.3554605 70.4587474,12.5451113 70.3906999,12.4666689 C70.3915197,12.4674043 70.3923396,12.4682214 70.3923396,12.4690385 C70.5481109,12.6815683 70.6956837,12.9021876 70.8432565,13.1227251 C71.1703763,13.6366861 71.4573234,14.1752421 71.7114766,14.7299769 C71.6803223,14.6524333 71.6581864,14.5967883 71.7204949,14.740681 C71.7885424,14.9016513 71.758208,14.8370181 71.7319728,14.7790851 C71.7459102,14.815855 71.7590278,14.8476405 71.7614874,14.8549944 C71.8188768,14.9939028 71.8680677,15.1328929 71.9172587,15.2718013 C72.0238391,15.5740497 72.1222209,15.8846325 72.2042058,16.1951336 C72.2861907,16.4974636 72.3599771,16.799712 72.4173666,17.1102948 C72.4501605,17.2899769 72.4829545,17.4697407 72.5157484,17.6414151 C72.5239469,17.6961614 72.5313256,17.758997 72.5469027,17.8145604 L72.5469027,17.8154592 C72.5478045,17.8170117 72.5478045,17.819463 72.5485424,17.8210972 C72.6042921,18.1716366 72.5198477,17.8545987 72.5469027,17.8154592 C72.5026309,17.859583 72.6387258,18.7216322 72.6469243,18.826222 C72.6633213,19.218434 72.6715197,19.6105642 72.6797182,20.0110289 L72.6797182,23.573539 C72.6797182,23.9820931 72.6633213,24.3988183 72.6797182,24.8073724 C72.6805381,24.8204461 72.6805381,24.8319673 72.6813579,24.8425897 C72.6764388,24.8630174 72.6723396,24.8817292 72.6690602,24.8948029 L72.6690602,24.8948029 Z M72.6167867,25.0454014 C72.6227867,25.0395014 72.6287867,25.0324014 72.6347867,25.0265014 C72.6377867,25.0294014 72.6397867,25.0324014 72.6417867,25.0374014 C72.6417867,25.0374014 72.6317867,25.0404014 72.6167867,25.0454014 L72.6167867,25.0454014 Z M72.4562893,25.1118503 C72.4621893,25.1108503 72.4681893,25.1108503 72.4741893,25.1099503 C72.4531893,25.1219503 72.4491893,25.1208503 72.4562893,25.1118503 L72.4562893,25.1118503 Z M45.6371341,24.9205048 C45.6561341,24.8965048 45.6741341,24.8755048 45.6901341,24.8556048 C45.6871341,24.8596048 45.6851341,24.8636048 45.6831341,24.8675048 C45.6651341,24.8976048 45.6501341,24.9175048 45.6412341,24.9195048 C45.6391341,24.9205048 45.6381341,24.9205048 45.6371341,24.9205048 L45.6371341,24.9205048 Z M45.5772722,24.9690714 C45.5812722,24.9660714 45.5852722,24.9620714 45.5892722,24.9600714 C45.5932722,24.9570714 45.5982722,24.9530714 45.6022722,24.9490714 C45.6112722,24.9421714 45.6202722,24.9350714 45.6302722,24.9270714 C45.6322722,24.9320714 45.6132722,24.9471714 45.5822722,24.9660714 C45.5802722,24.9671714 45.5793722,24.9681714 45.5772722,24.9690714 L45.5772722,24.9690714 Z M45.5280667,25.0082684 C45.5300667,25.0071684 45.5320667,25.0052684 45.5340667,25.0031684 C45.5400667,25.0031684 45.5471667,25.0031684 45.5540667,25.0042684 C45.5480667,25.0042684 45.5390667,25.0052684 45.5280667,25.0082684 L45.5280667,25.0082684 Z M45.3942431,25.0779001 C45.4122431,25.0779001 45.4162431,25.0779001 45.4112431,25.0789001 L45.4092431,25.0789001 C45.4042431,25.0779001 45.3992431,25.0779001 45.3942431,25.0779001 L45.3942431,25.0779001 Z M4.15674088,25.0770998 C4.02720475,25.0770998 3.9025877,25.0712983 3.77469126,25.0696641 C4.05098037,25.1677171 3.49266321,25.0721154 3.68778727,25.068847 C3.6681109,25.0574892 3.63449709,25.0370615 3.60416268,25.0206376 C3.60334283,25.0199022 3.60252298,25.0199022 3.60170313,25.0199022 C3.58940539,25.0158167 3.57710766,25.0116494 3.56808932,25.008381 C3.59104509,25.0297075 3.60908177,25.0443337 3.61482071,25.0443337 C3.57792751,25.0632089 3.38608285,24.8858147 3.50824035,24.9520822 C3.48528457,24.9266702 3.4656082,24.9054253 3.45986926,24.897336 L3.39838058,24.8360529 C3.41313786,24.859749 3.42789515,24.8834451 3.44347228,24.9054253 C3.41887681,24.8809121 3.40247983,24.8482278 3.37788436,24.8237145 C3.36148738,24.8032868 3.3483698,24.7861275 3.33935146,24.7739526 C3.36640647,24.9447282 3.21309471,24.5949242 3.28606127,24.6693628 C3.28360173,24.6259743 3.27786278,24.5409951 3.27376354,24.5140305 C3.27704293,24.5238358 3.28196203,24.542711 3.28770097,24.5646912 L3.28770097,19.1122099 C3.28770097,18.7362584 3.28770097,18.3685597 3.30409795,17.9927717 C3.32049493,17.6659284 3.33689191,17.3308323 3.36968587,17.003989 C3.38608285,16.8405674 3.40247983,16.6853985 3.41887681,16.5219769 C3.42625545,16.4459041 3.45495016,16.3494853 3.45249061,16.2775798 C3.45249061,16.2801129 3.45167077,16.2824825 3.45167077,16.2849338 C3.44921122,16.2947391 3.44675167,16.3053615 3.44511197,16.3159839 C3.43855318,16.371629 3.43117454,16.4279277 3.41887681,16.4892109 C3.4254356,16.4337292 3.43281424,16.3731815 3.44511197,16.3159839 C3.44757152,16.2972721 3.45003107,16.2783969 3.45167077,16.2604206 C3.45249061,16.266222 3.45249061,16.2718601 3.45249061,16.2775798 C3.65007422,15.0135951 4.00998792,13.8229868 4.44368803,12.6242891 C4.44696742,12.6144838 4.44942697,12.6063944 4.45188652,12.5998575 C4.43548954,12.6381799 4.41909256,12.6757669 4.40269558,12.714171 C4.29529536,12.9617547 4.44040863,12.60141 4.45762546,12.5786127 C4.45762546,12.5809823 4.45598576,12.5875192 4.45188652,12.5998575 C4.46008501,12.5809823 4.4682835,12.5614534 4.47648198,12.5425782 C4.5420699,12.4036698 4.60765782,12.2647614 4.67324574,12.1259348 C4.80442157,11.8480363 4.95199439,11.5784723 5.09956721,11.3169159 C5.3840548,10.8226472 5.70133635,10.3600822 6.03419504,9.89759898 C6.01615836,9.92129512 5.99730183,9.94499125 5.97680561,9.96868739 C5.86694585,10.103592 6.08666537,9.81433565 6.09404401,9.81343683 C6.09076462,9.81915659 6.07518749,9.84130022 6.04239353,9.88697657 C6.066989,9.85674357 6.09076462,9.82732767 6.11617994,9.79717638 C6.18996634,9.70721277 6.26375275,9.61741258 6.34573765,9.52744896 C6.5425014,9.29865867 6.73926516,9.08629224 6.9442274,8.8737624 C7.36235038,8.44886613 7.80506882,8.04848312 8.27238274,7.67261334 C8.29287896,7.65545407 8.31173549,7.64074612 8.32977217,7.62522107 C8.32239353,7.63102253 8.31583474,7.63592518 8.30845609,7.63992901 C8.31747443,7.63339215 8.33059202,7.62358685 8.3453493,7.61222905 C8.3404302,7.61704998 8.33469126,7.62113553 8.32977217,7.62522107 C8.44209148,7.54931171 8.55277109,7.46016521 8.65771176,7.37845439 C8.90366645,7.19869058 9.15781963,7.02709786 9.41197282,6.86367622 C9.91208069,6.54500402 10.4203871,6.25901615 10.9450904,5.98937044 C11.2156406,5.85046205 11.4861907,5.71972474 11.7567409,5.59715851 C11.8821778,5.54241226 12.0076147,5.48774772 12.1330516,5.43300147 C12.1117355,5.44190795 12.0895996,5.45016074 12.0682835,5.45825011 C12.0371292,5.46968963 12.0240117,5.47459228 12.022372,5.47459228 C12.0453277,5.46070144 12.4052414,5.31198774 12.1502684,5.42556578 C12.1453493,5.42809882 12.1404302,5.42973304 12.1355111,5.43210265 C12.2035586,5.4060369 12.271606,5.37653929 12.3388337,5.35202605 C12.9373234,5.11506467 13.5440117,4.90261653 14.1506999,4.71476336 C15.4214658,4.32246971 16.7168272,4.02831076 18.0203871,3.81594433 C18.1761584,3.79134938 18.3401282,3.76683613 18.4958995,3.74232289 C18.6475715,3.71862675 18.8845079,3.7333347 19.0181433,3.6736858 L19.0148639,3.6736858 C19.0181433,3.6729504 19.0206028,3.67205158 19.0222425,3.67205158 C19.0214227,3.6729504 19.019783,3.6729504 19.0181433,3.6736858 C19.0558563,3.66968197 19.0927495,3.66469761 19.1271832,3.66061207 C19.3403439,3.63609882 19.5617031,3.61166728 19.7830624,3.58707233 C20.479934,3.51353259 21.1850041,3.45633501 21.8900742,3.4154796 C23.5297722,3.32567941 25.1776686,3.31742662 26.8173666,3.39913744 C27.7519944,3.43999285 28.6866222,3.51353259 29.6130516,3.62792774 C29.703235,3.63609882 29.8016168,3.65252269 29.8918002,3.66061207 L30.0106783,3.67532001 L30.0114982,3.67532001 C30.012318,3.67532001 30.0131379,3.67532001 30.0139577,3.67621883 C30.0155974,3.67621883 30.0188768,3.67621883 30.0221562,3.67695423 L30.0262554,3.67695423 C30.0270753,3.67695423 30.0270753,3.67695423 30.0278951,3.67777134 L30.0295348,3.67777134 L30.0344539,3.67858845 L30.0360936,3.67858845 C30.0401929,3.67948726 30.045112,3.67948726 30.0483914,3.68022266 C30.0500311,3.68022266 30.0516708,3.68103977 30.0541303,3.68103977 C30.061509,3.68103977 30.0647883,3.68185688 30.0631487,3.68185688 C30.0705273,3.68349109 30.0787258,3.6843082 30.088564,3.68512531 C30.169729,3.69664654 30.2853277,3.71380581 30.2853277,3.71780964 C30.3755111,3.73423351 30.4656945,3.74232289 30.5640764,3.75866505 C31.0149933,3.83220479 31.4659102,3.90574453 31.9168272,3.99562643 C33.5811206,4.32246971 35.229017,4.7800503 36.8031271,5.40930533 C36.8383806,5.42483039 36.8769135,5.43863951 36.9154464,5.45253035 C36.8514982,5.41257376 36.814605,5.38144194 37.0064496,5.49256866 C36.9785748,5.47786071 36.9482403,5.4656858 36.9170861,5.45342917 C36.9384022,5.46732001 36.9638175,5.48112914 36.9834939,5.49101615 C37.1720591,5.57272697 37.3606244,5.65443779 37.5491896,5.74423798 C37.9181217,5.91583071 38.2788552,6.1038473 38.6313903,6.29987156 C39.3143245,6.67165579 39.9677441,7.09328363 40.5916492,7.55494976 C40.5916492,7.5574828 40.8024324,7.72000562 40.8203871,7.73806371 C40.8941735,7.79517957 40.9679599,7.86062994 41.0417463,7.92591688 C41.2057161,8.06490699 41.3696859,8.21190476 41.5254572,8.35898423 C41.8124043,8.62862994 42.0993515,8.90644673 42.3617031,9.1924346 C42.5182943,9.36165771 42.7839254,9.59289933 42.9429761,9.81588816 C42.9512565,9.80608286 42.9880677,9.84938959 43.0421778,9.98511127 C43.0184022,9.93036502 42.9847883,9.87308573 42.9429761,9.81588816 C42.9364173,9.82324213 42.9478951,9.86499636 42.9847883,9.91974261 C43.0421778,9.99320064 43.0913687,10.0668221 43.1487581,10.1402801 C43.2717355,10.3037018 43.3865143,10.4753762 43.4930947,10.6387978 C43.8866222,11.2352051 44.2309588,11.8644601 44.5261044,12.5098939 C44.5605381,12.5842508 44.5884129,12.6537867 44.6212069,12.7264276 C44.6007107,12.6716813 44.5909545,12.6472498 44.5892328,12.6398958 C44.5949717,12.6455339 44.7146697,12.943043 44.6408833,12.7713685 C44.6352263,12.7591936 44.6294054,12.7468553 44.6244863,12.7345987 C44.6269458,12.7411355 44.6302252,12.7476724 44.6326848,12.7550264 C44.6982727,12.918448 44.7638606,13.0818696 44.8212501,13.2452913 C44.9524259,13.6212428 45.0754032,13.9970308 45.1819836,14.3892428 C45.288564,14.7651943 45.3787474,15.1492351 45.4525338,15.5331943 C45.4853277,15.6966159 45.5181217,15.8682903 45.5427172,16.031712 C45.5648531,16.1484767 45.5804302,16.258868 45.5952695,16.3748974 L45.5952695,16.3764499 C45.6509372,16.5308834 45.6517571,16.5620152 45.6386395,16.5391362 C45.7058671,16.8609951 45.6861907,17.2565572 45.7066869,17.5597043 C45.7722749,17.9763478 45.7804734,18.4339284 45.7886718,18.8996801 C45.7886718,18.8646261 45.7894917,18.8303076 45.7927711,18.795989 C45.7952306,18.8883222 45.7976902,18.9813909 45.7993299,19.0746229 C45.8222857,20.1964308 45.8017894,21.3240401 45.7886718,22.4467468 L45.7886718,24.5296373 C45.7911314,24.5246529 45.7935909,24.5205674 45.7960505,24.5172989 C45.7968703,24.5157464 45.7968703,24.5148476 45.7968703,24.5132134 C45.7976902,24.5132134 45.79851,24.5140305 45.79851,24.5148476 C45.79851,24.5140305 45.7993299,24.5140305 45.8002317,24.5132134 C45.8002317,24.5140305 45.7993299,24.5148476 45.7993299,24.5164818 C45.8017894,24.5222833 45.7993299,24.540178 45.7919512,24.5631387 C45.7927711,24.5508004 45.7944108,24.5377267 45.7960505,24.5238358 C45.7935909,24.5296373 45.7911314,24.5369095 45.7886718,24.5450806 L45.7886718,24.6030953 C45.7886718,24.617885 45.7886718,24.6309587 45.7870321,24.6415811 L45.7870321,24.6513864 L45.7862123,24.6522035 C45.7862123,24.6562073 45.7862123,24.6602929 45.7853924,24.6635613 L45.7853924,24.6643784 C45.7837528,24.6652772 45.7821131,24.6668297 45.7804734,24.6685457 C45.7797355,24.6693628 45.7780138,24.6700982 45.777194,24.6718141 C45.7763741,24.6718141 45.7763741,24.6726312 45.7755543,24.6733666 L45.7755543,24.6741837 C45.7747344,24.6741837 45.7730947,24.6750825 45.7722749,24.676635 C45.7698153,24.6791681 45.7665359,24.6831719 45.7632565,24.6897905 C45.7625187,24.6880746 45.7616168,24.6865221 45.7616168,24.6848061 L45.7616168,24.683989 C45.7599771,24.6791681 45.7592393,24.6741837 45.7583374,24.6685457 C45.7575176,24.6709153 45.7575176,24.6718141 45.7566977,24.6733666 C45.7542382,24.6848061 45.7525985,24.6955102 45.7501389,24.7035996 C45.7493191,24.7085023 45.7484992,24.7126695 45.7476794,24.715938 C45.7411206,24.7281129 45.733742,24.7428208 45.7263633,24.7576105 C45.7255435,24.7583459 45.7255435,24.759163 45.7255435,24.759163 C45.7165251,24.7763222 45.7066869,24.7951974 45.6977506,24.8123567 C45.6977506,24.8130921 45.6968488,24.8130921 45.6968488,24.8130921 C45.6870106,24.8245316 45.6772544,24.8360529 45.6665143,24.8465936 C45.6640548,24.8506791 45.6615953,24.8539475 45.6591357,24.857216 C45.6460181,24.8711068 45.6320807,24.8849976 45.6165036,24.897336 C45.6165036,24.897336 45.5968272,24.9169466 45.5697722,24.9438294 L45.5337808,24.9797822 C45.532879,24.9797822 45.5312393,24.9805993 45.5304194,24.9814981 C45.5230408,24.9855837 45.5148423,24.9904046 45.5074636,24.9944901 C45.5099232,24.9944901 45.5123827,24.993673 45.5156621,24.9944901 L45.5173018,24.9944901 L45.5099232,25.0019258 C45.5091033,25.001027 45.5082835,25.0019258 45.5074636,25.0027429 C45.4992652,25.0042954 45.4910667,25.0067468 45.4812285,25.0092798 C45.4664712,25.0173692 45.4508941,25.0255402 45.4369566,25.0329759 C45.4345791,25.0345284 45.4328574,25.0362444 45.4303978,25.0370615 C45.4303978,25.0370615 45.4303978,25.0377969 45.429578,25.0377969 C45.4115413,25.0492364 45.3959642,25.0566721 45.3844863,25.0607576 C45.3828466,25.061493 45.3820268,25.061493 45.3812069,25.0623101 C45.3631702,25.0672945 45.353332,25.0655786 45.3516923,25.0607576 C45.3410343,25.064026 45.3311961,25.0663957 45.3213579,25.068847 C45.3180785,25.0696641 45.3147991,25.0705629 45.3123396,25.0705629 C45.3116017,25.0705629 45.3106999,25.0712983 45.3106999,25.0712983 C45.3083223,25.0721154 45.3066006,25.0729325 45.3049609,25.0738313 C45.3025014,25.0738313 45.299222,25.0738313 45.2967625,25.0746485 C45.2959426,25.0738313 45.2959426,25.0738313 45.2951228,25.0746485 C45.2926632,25.0753838 45.2902037,25.076201 45.2878261,25.076201 C45.266428,25.0770998 45.2442921,25.0770998 45.2213364,25.0770998 C45.2164173,25.076201 45.2106783,25.0770998 45.2065791,25.0770998 L45.0754032,25.0770998 C43.1569566,25.0851891 41.2303115,25.0770998 39.3118649,25.0770998 L4.15674088,25.0770998 Z M8.42103484,7.56698786 C8.42703484,7.56208786 8.43303484,7.55698786 8.43903484,7.55298786 C8.42703484,7.56298786 8.41303484,7.57398786 8.40003484,7.58508786 L8.42103484,7.56698786 Z M8.47892805,7.520764 C8.46792805,7.530764 8.45192805,7.543864 8.43392805,7.556764 C8.45392805,7.540764 8.46892805,7.528764 8.47892805,7.520764 L8.47892805,7.520764 Z M18.9140224,3.69399115 C18.9476362,3.68899115 18.9812501,3.68499115 19.014044,3.67999115 C18.9410775,3.70099115 18.645112,3.72999115 18.9140224,3.69399115 L18.9140224,3.69399115 Z M43.0667732,9.92783198 C43.0454572,9.87717127 43.0093838,9.82569346 42.9667517,9.77348024 C42.9585532,9.73417734 42.9995456,9.76040651 43.0667732,9.92783198 L43.0667732,9.92783198 Z M44.0259965,8.72514585 C44.0448531,8.71314585 44.1228207,8.67014585 44.1424151,8.66024585 C44.1342166,8.66614585 44.1112608,8.67924585 44.066989,8.70514585 C44.0645294,8.70624585 44.0620699,8.70714585 44.0604302,8.70914585 C44.056331,8.71114585 44.0530516,8.71314585 44.050592,8.71424585 C44.0415737,8.71914585 44.0333752,8.72314585 44.0276362,8.72614585 C44.0251767,8.72724585 44.023537,8.72814585 44.0218973,8.72814585 C44.023537,8.72724585 44.0243569,8.72614585 44.0259965,8.72514585 L44.0259965,8.72514585 Z M44.1243784,6.25084507 C44.1875068,6.31212818 44.2498153,6.37422841 44.311304,6.43722745 C44.2498153,6.37594433 44.1875068,6.31466122 44.1243784,6.2533781 L44.1243784,6.25084507 Z M44.6622989,12.6863893 L44.6622989,12.6855722 C44.5172989,12.382425 44.8412989,13.0140497 44.6622989,12.6863893 L44.6622989,12.6863893 Z M45.6332867,16.3331432 C45.6332867,16.3355945 45.6342867,16.3388629 45.6352867,16.3421314 C45.6492867,16.3903408 45.6682867,16.4998333 45.6682867,16.5104557 C45.6672867,16.5088214 45.6662867,16.5040005 45.6642867,16.4950123 C45.6632867,16.4909268 45.6622867,16.4859424 45.6612867,16.4811215 C45.6552867,16.445087 45.6483867,16.4099514 45.6402867,16.3748974 C45.6402867,16.3731815 45.6402867,16.371629 45.6392867,16.3699131 C45.6372867,16.3552868 45.6332867,16.3405789 45.6302867,16.3257892 C45.6312867,16.3275051 45.6322867,16.3298748 45.6332867,16.3331432 L45.6332867,16.3331432 Z M68.5221524,10.5706446 C68.5091524,10.5576446 68.4661524,10.5215446 68.4231524,10.4866446 C68.4661524,10.5166446 68.5091524,10.5505446 68.5221524,10.5706446 L68.5221524,10.5706446 Z M75.9574744,19.8516928 C75.9296816,17.2082661 75.3925985,14.5788119 74.1308509,12.2402482 C72.9748639,10.0994247 71.2203871,8.35089486 69.1707646,7.04352174 C66.8751875,5.58081634 64.2024798,4.69833948 61.5379707,4.20807456 C58.4553385,3.63609882 55.2907215,3.48910105 52.1588984,3.67695423 C49.1164388,3.86407201 46.1174313,4.39192391 43.2864928,5.49501998 C41.8394593,4.26935768 40.1882835,3.27828714 38.426428,2.52483166 C34.9174744,1.02952365 31.1379707,0.351323843 27.3420699,0.122533546 C24.0708725,-0.0735724226 20.7750796,0.0735070539 17.5366762,0.58011414 C12.3962231,1.38088018 7.01801381,3.43182177 3.69762546,7.60724469 C1.9841411,9.76441034 0.836352535,12.2811036 0.35264164,14.9939028 C-0.0162903991,17.0775288 0.000106580367,19.1530653 0.000106580367,21.2529517 L0.000106580367,24.0883171 C0.000106580367,24.3417024 0.000106580367,24.5868349 0.0247020496,24.8319673 C0.155877886,26.0085214 0.729772168,26.9973041 1.70539245,27.6835932 C2.6236233,28.3291904 3.64843452,28.3455326 4.69784121,28.3455326 L45.1409912,28.3455326 C45.152469,28.3455326 45.1631271,28.3455326 45.174605,28.3446338 C45.1828035,28.3455326 45.1901821,28.3455326 45.1983806,28.3455326 L45.1983806,28.353622 C45.2549502,28.3520695 45.3116017,28.3496181 45.3672695,28.3455326 L67.5310667,28.3455326 C69.1379707,28.3455326 70.7530731,28.361793 72.3599771,28.3455326 C73.3110019,28.3372798 74.2456298,27.9859233 74.9261044,27.3078052 C75.688564,26.5478945 75.9673126,25.5510225 75.9673126,24.5132134 L75.9673126,20.0191183 C75.9673126,19.9627378 75.9640332,19.9071745 75.9574744,19.8516928 L75.9574744,19.8516928 Z" id="Fill-63" fill="#6D3078" mask="url(#mask-2)"></path>
            </g>
            <path d="M3.37788436,55.5410344 C3.36148738,55.5206067 3.3483698,55.5034474 3.33935146,55.4912725 C3.36640647,55.6619664 3.21309471,55.3122441 3.28606127,55.386601 C3.28360173,55.3432942 3.27786278,55.258315 3.27376354,55.2313504 C3.27704293,55.2411557 3.28196203,55.2600309 3.28770097,55.2820111 C3.30737735,55.3506482 3.33443236,55.4454327 3.32869342,55.4348103 C3.32951327,55.4388959 3.33033312,55.4429814 3.33115297,55.4471487 C3.35574844,55.4805684 3.37624466,55.5173383 3.39838058,55.553291 C3.41313786,55.5769872 3.42789515,55.6006833 3.44347228,55.6227452 C3.41887681,55.598232 3.40247983,55.5655477 3.37788436,55.5410344" id="Fill-66" fill="#000000"></path>
            <path d="M3.46232524,47.0016831 C3.46232524,47.0046831 3.46132524,47.0076831 3.46132524,47.0106831 C3.45832524,47.0226831 3.45532524,47.0356831 3.45332524,47.0486831 C3.45632524,47.0256831 3.45932524,47.0026831 3.46132524,46.9806831 C3.46232524,46.9876831 3.46232524,46.9946831 3.46232524,47.0016831" id="Fill-68" fill="#000000"></path>
            <path d="M3.68781187,55.7861669 C3.66813549,55.7747274 3.63452168,55.7542996 3.60410529,55.7379575 C3.60336742,55.7371404 3.60254757,55.7371404 3.60172772,55.7371404 C3.5828712,55.7265997 3.56565437,55.7175298 3.55499633,55.7142613 C3.55983344,55.7183469 3.56401467,55.7224324 3.56811392,55.7257009 C3.59106969,55.7470274 3.60910636,55.7616536 3.61484531,55.7616536 C3.5779521,55.7805288 3.38610744,55.6031346 3.50826494,55.6693204 C3.50908479,55.6701375 3.50990464,55.6709546 3.51154434,55.6718534 C3.53040086,55.681577 3.55663603,55.6979192 3.59106969,55.7207982 C3.60500712,55.7298681 3.61730485,55.7379575 3.62796289,55.7453115 C3.68125307,55.7624707 3.7419219,55.7788129 3.74757886,55.7788129 C3.75749903,55.7812642 3.76569752,55.7845327 3.77389601,55.786984 L3.77471586,55.786984 C4.05100496,55.885037 3.49268781,55.7894353 3.68781187,55.7861669" id="Fill-70" fill="#000000"></path>
            <path d="M4.463431,43.2958999 C4.463431,43.2982695 4.46169024,43.3048064 4.45733835,43.3171447 C4.43993076,43.3554671 4.42252318,43.3930541 4.40511559,43.4314582 C4.29109592,43.6790419 4.44515304,43.3186972 4.463431,43.2958999" id="Fill-72" fill="#000000"></path>
            <path d="M6.09403581,40.5307404 C6.09075642,40.5364601 6.07517929,40.5586038 6.04238533,40.6042801 C6.03992578,40.6075485 6.03746624,40.6116341 6.03418684,40.6149025 C6.01615016,40.6385987 5.99729364,40.6622948 5.97679741,40.6859909 C5.86693765,40.8208955 6.08665717,40.5316392 6.09403581,40.5307404" id="Fill-74" fill="#000000"></path>
            <path d="M8.35840205,38.3355353 C8.35240205,38.3415353 8.34540205,38.3465353 8.33940205,38.3515353 C8.33040205,38.3585353 8.32240205,38.3645353 8.31340205,38.3695353 C8.32440205,38.3615353 8.34040205,38.3495353 8.35840205,38.3355353" id="Fill-76" fill="#000000"></path>
            <path d="M12.1502684,36.146847 C12.1453493,36.1495266 12.1404302,36.151313 12.1355111,36.1539926 C12.1346913,36.1548858 12.1338714,36.1548858 12.1330516,36.1548858 C12.1117355,36.1647109 12.0895996,36.1736428 12.0682835,36.1825747 C12.0371292,36.1950794 12.0240117,36.2004386 12.022372,36.2004386 C12.0453277,36.1852543 12.4052414,36.0226933 12.1502684,36.146847" id="Fill-78" fill="#000000"></path>
            <path d="M19.0320525,34.3983413 C19.0310525,34.3993413 19.0290525,34.3993413 19.0270525,34.4003413 L19.0230525,34.4003413 C19.0270525,34.3993413 19.0300525,34.3983413 19.0320525,34.3983413" id="Fill-80" fill="#000000"></path>
            <path d="M30.0375414,34.4043273 C30.0345414,34.4033273 30.0325414,34.4033273 30.0305414,34.4033273 L30.0355414,34.4033273 C30.0365414,34.4033273 30.0365414,34.4033273 30.0375414,34.4043273" id="Fill-82" fill="#000000"></path>
            <path d="M37.006466,36.2276116 C36.9785912,36.2096116 36.9482567,36.1946116 36.9171025,36.1797116 C36.9162826,36.1797116 36.9154628,36.1786116 36.9154628,36.1786116 C36.8515146,36.1297116 36.8146214,36.0916116 37.006466,36.2276116" id="Fill-84" fill="#000000"></path>
            <path d="M43.0429679,40.7023821 C43.0190009,40.6476359 42.9851166,40.5904383 42.9429679,40.5332407 C42.951315,40.5234354 42.9884224,40.5667422 43.0429679,40.7023821" id="Fill-86" fill="#000000"></path>
            <path d="M43.0667487,40.6451682 C43.0454326,40.5945075 43.0094412,40.5430297 42.9667271,40.4907348 C42.9586106,40.4515136 42.999603,40.477661 43.0667487,40.6451682" id="Fill-88" fill="#000000"></path>
            <path d="M44.1423987,39.3775076 C44.1342002,39.3835076 44.1112444,39.3965076 44.0669726,39.4225076 C44.0645131,39.4235076 44.0621355,39.4245076 44.0604138,39.4265076 C44.0563146,39.4285076 44.0530352,39.4305076 44.0505756,39.4315076 C44.0408194,39.4355076 44.0333588,39.4395076 44.0277018,39.4435076 C44.0251603,39.4445076 44.0235206,39.4455076 44.0218809,39.4455076 C44.0235206,39.4445076 44.0244224,39.4435076 44.0259802,39.4425076 C44.0449187,39.4305076 44.1228043,39.3875076 44.1423987,39.3775076" id="Fill-90" fill="#000000"></path>
            <path d="M44.6529256,43.4886884 C44.6460256,43.4765135 44.6389256,43.4641752 44.6329256,43.4519185 C44.6319256,43.4486501 44.6309256,43.4461988 44.6289256,43.4437475 C44.6039256,43.3890012 44.5920256,43.364488 44.5899256,43.3572157 C44.5969256,43.3628538 44.7429256,43.6603628 44.6529256,43.4886884" id="Fill-92" fill="#000000"></path>
            <path d="M44.6622825,43.4037092 L44.6622825,43.4028921 C44.5172825,43.0997449 44.8412825,43.7313695 44.6622825,43.4037092" id="Fill-94" fill="#000000"></path>
            <path d="M45.4640035,55.7389792 C45.4238309,55.7549792 45.3779193,55.7759792 45.3508643,55.7889792 C45.352586,55.7660792 45.4016949,55.7200792 45.4943379,55.7150792 C45.4836798,55.7230792 45.4738416,55.7309792 45.4640035,55.7389792" id="Fill-96" fill="#000000"></path>
            <path d="M45.6045963,47.1020699 L45.6045963,47.1040699 C45.6034963,47.0999699 45.6015963,47.0959699 45.6005963,47.0919699 C45.6015963,47.0950699 45.6024963,47.0990699 45.6045963,47.1020699" id="Fill-98" fill="#000000"></path>
            <path d="M45.6516298,47.256407 C45.6386298,47.2384306 45.6136298,47.1845015 45.6046298,47.1330237 C45.6027298,47.11995 45.6006298,47.1068762 45.5987298,47.0938025 C45.6666298,47.2481542 45.6676298,47.2792861 45.6516298,47.256407" id="Fill-100" fill="#000000"></path>
            <path d="M45.6682621,47.2277592 C45.6672621,47.226125 45.6662621,47.2213041 45.6642621,47.2123159 C45.6632621,47.2082303 45.6622621,47.203246 45.6613621,47.198425 C45.6552621,47.1623906 45.6483621,47.1273366 45.6403621,47.092201 C45.6403621,47.090485 45.6403621,47.0889325 45.6392621,47.0872166 C45.6372621,47.0725904 45.6332621,47.0578824 45.6302621,47.0430928 C45.6312621,47.0448087 45.6323621,47.0471783 45.6332621,47.0504467 C45.6332621,47.0528981 45.6342621,47.0561665 45.6352621,47.0594349 C45.6493621,47.1076443 45.6682621,47.2171368 45.6682621,47.2277592" id="Fill-102" fill="#000000"></path>
            <path d="M45.8011589,55.2469081 L45.8011589,55.2623515 C45.7981589,55.2714214 45.7942589,55.2812267 45.7911589,55.2918491 C45.7811589,55.321265 45.7721589,55.3555835 45.7641589,55.3841823 C45.7591589,55.3539493 45.7641589,55.3064753 45.7911589,55.2616161 C45.7942589,55.2567134 45.7971589,55.2518108 45.8011589,55.2469081" id="Fill-104" fill="#000000"></path>
            <path d="M45.3032871,55.8027314 C45.3061871,55.8027314 45.3092871,55.8017314 45.3122871,55.8007314 C45.2822871,55.8007314 45.2511871,55.8027314 45.2221871,55.8038314 C45.2502871,55.8038314 45.2771871,55.8038314 45.3032871,55.8027314 L45.3032871,55.8027314 Z M45.3479735,55.7866662 C45.3370735,55.7906662 45.3260735,55.7946662 45.3170735,55.7986662 C45.3199735,55.7986662 45.3239735,55.7975662 45.3279735,55.7965662 C45.3399735,55.7935662 45.3519735,55.7906662 45.3649735,55.7866662 C45.3630735,55.7845662 45.3630735,55.7826662 45.3640735,55.7805662 C45.3580735,55.7826662 45.3519735,55.7845662 45.3479735,55.7866662 L45.3479735,55.7866662 Z M45.4500591,55.755976 C45.4471591,55.758076 45.4441591,55.759976 45.4410591,55.762076 C45.4580591,55.752976 45.4771591,55.742976 45.4950591,55.733076 C45.4881591,55.734976 45.4811591,55.737976 45.4740591,55.739976 C45.4660591,55.745076 45.4580591,55.750076 45.4500591,55.755976 L45.4500591,55.755976 Z M45.496729,55.7259522 C45.501629,55.7248522 45.506629,55.7248522 45.512729,55.7248522 C45.521729,55.7198522 45.531629,55.7139522 45.540729,55.7089522 C45.541729,55.7078522 45.543629,55.7068522 45.544729,55.7068522 L45.570729,55.6809522 C45.569729,55.6809522 45.569729,55.6818522 45.568629,55.6818522 C45.544729,55.6969522 45.520729,55.7108522 45.496729,55.7259522 L45.496729,55.7259522 Z M45.5893233,55.6773749 C45.5853233,55.6793749 45.5813233,55.6833749 45.5772233,55.6863749 C45.5793233,55.6854749 45.5803233,55.6844749 45.5822233,55.6833749 C45.6133233,55.6644749 45.6322233,55.6493749 45.6303233,55.6443749 C45.6202233,55.6523749 45.6112233,55.6594749 45.6022233,55.6663749 C45.5982233,55.6703749 45.5933233,55.6743749 45.5893233,55.6773749 L45.5893233,55.6773749 Z M45.6719665,55.5803629 C45.6750665,55.5763629 45.6780665,55.5723629 45.6809665,55.5673629 C45.6599665,55.5893629 45.6389665,55.6103629 45.6200665,55.6294629 C45.6389665,55.6143629 45.6559665,55.5973629 45.6719665,55.5803629 L45.6719665,55.5803629 Z M45.800002,55.2948084 C45.809002,55.2667084 45.812102,55.2448084 45.809002,55.2377084 C45.807102,55.2397084 45.806102,55.2427084 45.805002,55.2467084 C45.803102,55.2637084 45.801002,55.2797084 45.800002,55.2948084 L45.800002,55.2948084 Z M45.8003234,49.5132926 C45.7963234,49.5476111 45.7953234,49.5818479 45.7953234,49.6169836 L45.7953234,53.1640503 C45.8114234,52.0413436 45.8364234,50.9137343 45.8083234,49.7919265 C45.8064234,49.6986944 45.8033234,49.6056258 45.8003234,49.5132926 L45.8003234,49.5132926 Z M49.0043291,55.8085715 C49.0074291,55.7934715 49.0093291,55.7785715 49.0114291,55.7625715 C49.0084291,55.7774715 49.0053291,55.7934715 49.0034291,55.8085715 L49.0043291,55.8085715 Z M46.3544086,39.6564346 C46.162564,39.3639099 45.9608811,39.0787391 45.7501799,38.8017394 C45.7436211,38.8033736 45.7369804,38.8059067 45.7312414,38.8082763 C46.5879836,39.961216 47.2815758,41.2252823 47.8218563,42.5735109 C48.6901584,44.7306765 48.9508703,46.9883465 49.0270343,49.2714285 C49.0344129,49.476441 49.0402339,49.6823523 49.0442511,49.8890806 C49.0573687,50.5059973 49.0599102,51.1238128 49.0599102,51.7414649 L49.0599102,55.0189676 C49.066469,54.8186944 49.0680268,54.6161333 49.0680268,54.4134087 L49.0680268,49.6169836 C49.0599102,46.1361844 48.2891702,42.589853 46.3544086,39.6564346 L46.3544086,39.6564346 Z" id="Fill-106" fill="#000000"></path>
            <g id="Group-110" transform="translate(10.494067, 0.075746)">
                <mask id="mask-4" fill="white">
                    <use xlink:href="#path-3"></use>
                </mask>
                <g id="Clip-109"></g>
                <path d="M24.6857592,14.8386931 C24.6775607,14.9857726 24.6611638,15.1410232 24.6447668,15.2881026 C24.6423072,15.2987251 24.6406675,15.3167014 24.6398477,15.3371291 C24.6464065,15.3019935 24.6496859,15.2848342 24.6505057,15.2856513 C24.6505057,15.2921882 24.6455866,15.3297752 24.6357484,15.3975951 C24.6365683,15.3779846 24.638208,15.3575568 24.6390278,15.3403976 C24.638208,15.3444831 24.6373881,15.3485687 24.6365683,15.3534713 C24.6283698,15.4106689 24.6201713,15.4596954 24.6119728,15.5168929 C24.5135909,16.1133819 24.3660181,16.7016998 24.1774529,17.2818467 C24.0880893,17.5580292 23.9823288,17.8260407 23.8839469,18.0940522 C23.8962447,18.0654534 23.9093622,18.0376718 23.9232997,18.009073 C24.0134831,17.812967 23.8085208,18.3032319 23.8823072,18.0989549 C23.8659102,18.1340905 23.851153,18.1700433 23.8331163,18.2051789 C23.7675284,18.3522584 23.693742,18.4993379 23.6199556,18.6382463 C23.3412069,19.1775377 23.0296643,19.7004869 22.6771292,20.1989229 C22.6205597,20.2798167 22.515619,20.4881793 22.4262554,20.5396571 C22.4590494,20.508607 22.6607323,20.2495837 22.4803655,20.4603976 C22.4311745,20.5175951 22.3901821,20.5747927 22.3409912,20.6238192 C22.1442274,20.8526095 21.9474636,21.0813998 21.7343029,21.2938479 C21.5375392,21.498125 21.3325769,21.694231 21.1194162,21.8821658 C21.0128358,21.9802188 20.9062554,22.0701007 20.7996751,22.1599826 C20.7422857,22.2090091 20.6930947,22.2498645 20.6357053,22.298891 C20.4390235,22.4572466 20.5911875,22.3928585 20.6609566,22.2984825 C20.5401929,22.472118 20.1443698,22.6634847 19.9798261,22.7728138 C19.7092759,22.9525776 19.4305273,23.1159992 19.1517786,23.2712498 C18.8976255,23.4101582 18.6434723,23.5408955 18.3811206,23.6634617 C18.3458671,23.6814381 18.3097937,23.6961461 18.2745402,23.7124882 C18.2343676,23.7745884 18.1122101,23.8138096 18.107291,23.801553 C17.9982511,23.8407742 17.8678951,23.8734585 17.8154248,23.892252 C17.249729,24.0965291 16.6594378,24.2599507 16.0691465,24.3825169 C15.9215737,24.4152013 15.7740009,24.4397145 15.6346265,24.4642278 C15.6346265,24.4642278 15.6133105,24.4691304 15.5837959,24.4756673 C15.6821778,24.4756673 15.4558995,24.5320477 15.4132673,24.4969121 C15.4247452,24.5083516 15.5223072,24.488741 15.5837959,24.4756673 C15.5682188,24.4756673 15.545263,24.4773015 15.5116492,24.4805699 C15.1755111,24.5214253 14.8311745,24.5459386 14.4950365,24.5622808 C13.8473558,24.586794 13.1996751,24.5541097 12.5601929,24.4805699 C12.5364173,24.4781186 12.5175607,24.4773015 12.5028035,24.4764844 C12.5642921,24.4879239 12.6479167,24.5018147 12.6585748,24.4969121 C12.6143029,24.526328 12.3699879,24.4691304 12.5028035,24.4764844 C12.4659102,24.4699475 12.4372155,24.4642278 12.4372155,24.4642278 C12.2896427,24.4397145 12.1420699,24.4152013 12.0026956,24.3825169 C11.6993515,24.3171483 11.3878088,24.2436086 11.0926632,24.1618977 C10.8139146,24.0801869 10.5351659,23.990305 10.2564173,23.892252 C10.1236017,23.8456769 9.99816483,23.7909306 9.8653493,23.7443554 C9.88912492,23.7549778 9.91290054,23.7664174 9.93667616,23.7778569 C10.1334399,23.8677388 9.64153053,23.6634617 9.84649277,23.7370015 C9.85305156,23.7394528 9.85879051,23.741087 9.8653493,23.7443554 C9.80714002,23.7173909 9.74893074,23.6928776 9.69072147,23.6634617 C9.13322416,23.4101582 8.60032233,23.1078282 8.09201597,22.7728138 C7.91984768,22.6584186 7.48532772,22.4623127 7.39514434,22.2743778 C7.40334283,22.2907199 7.69848846,22.5195102 7.47712923,22.3315754 C7.41973981,22.2825489 7.36235038,22.2416935 7.31315944,22.192667 C7.19018209,22.0864429 7.06720475,21.9883899 6.95242589,21.8821658 C6.51790593,21.4899539 6.10798145,21.0650576 5.73085092,20.6156481 C5.68165998,20.5584506 5.64066753,20.501253 5.59147659,20.4522265 C5.41110982,20.2332415 5.61279266,20.4996188 5.64558662,20.531486 C5.55622309,20.4800082 5.45128242,20.2716456 5.39471284,20.1907519 C5.20614757,19.9292772 5.03397929,19.6596315 4.87000949,19.3818147 C4.72243668,19.1366823 4.58306235,18.8833787 4.45188652,18.6300752 C4.3862986,18.4993379 4.32071068,18.3686006 4.26332125,18.2460343 C4.23298684,18.1855683 4.21003107,18.1251023 4.17969666,18.0646363 C4.18297605,18.0736245 4.18625545,18.0817956 4.18953484,18.0907838 C4.19937303,18.1169312 4.20347228,18.130005 4.20429213,18.1349076 C4.18953484,18.1087602 4.07557584,17.8293092 4.17313786,18.0499284 C4.17559741,18.054831 4.17805696,18.0597337 4.17969666,18.0646363 C3.97801381,17.5098199 3.77715081,16.9541863 3.64023603,16.3748566 C3.57464811,16.0888687 3.50906019,15.7947097 3.45986926,15.5087219 C3.45986926,15.5087219 3.45495016,15.4874771 3.44839137,15.4580612 C3.44839137,15.5561141 3.39182179,15.3305923 3.4270753,15.2881026 C3.41559741,15.2995422 3.43527379,15.396778 3.44839137,15.4580612 C3.44839137,15.4425361 3.44675167,15.4196571 3.44347228,15.3861556 C3.41887681,15.1982207 3.40247983,15.0102859 3.38608285,14.822351 C3.33689191,14.1931777 3.3450904,13.5640043 3.39428134,12.9430021 C3.40247983,12.7959226 3.41887681,12.6406721 3.43527379,12.4935926 C3.43855318,12.466628 3.44101273,12.443749 3.44265243,12.4257726 C3.39838058,12.7068578 3.47134714,12.1708349 3.44265243,12.4257726 C3.44511197,12.4102476 3.44839137,12.3922712 3.45167077,12.3710264 C3.5008617,12.0605252 3.56644962,11.7500241 3.64023603,11.4476941 C3.70582395,11.1617062 3.78780885,10.8838894 3.87799223,10.6060726 C3.91898468,10.4671643 3.96817562,10.3282559 4.01736656,10.1893475 C4.05016052,10.0912945 4.12394693,9.73176687 4.21413031,9.68274038 C4.23052729,9.64760472 4.24528457,9.61165196 4.26332125,9.57651631 C4.32071068,9.445779 4.3862986,9.31504169 4.45188652,9.19247545 C4.59126084,8.92282975 4.73883366,8.65318404 4.89460496,8.39170942 C5.04217778,8.14657695 5.19794908,7.90961558 5.36191888,7.6726542 C5.420948,7.59012627 5.48489622,7.50678123 5.5463849,7.4242533 C5.43078619,7.54927086 5.73495016,7.1554247 5.61607206,7.32946875 C5.59311629,7.36133597 5.57016052,7.39238608 5.5463849,7.4242533 C5.55048414,7.42016776 5.55458339,7.41608222 5.55868263,7.41117957 C5.61607206,7.34581092 5.67346149,7.27227118 5.73085092,7.20690252 C6.11617994,6.74115085 6.5425014,6.3080835 6.99341834,5.90770048 C7.09999871,5.80964749 7.20657907,5.71976559 7.32135793,5.62988369 C7.37874736,5.5808572 7.43613679,5.54000179 7.48532772,5.4909753 C7.58452945,5.40926447 7.55091564,5.39047099 7.48696742,5.44521724 C7.65913571,5.27934427 7.98625545,5.12736214 8.14940539,5.02522362 C8.64951327,4.70655142 9.16601812,4.41239247 9.70711845,4.16726001 C9.74237195,4.14928363 9.77844531,4.13457568 9.81369881,4.11823351 C9.81369881,4.11741641 9.81533851,4.1165993 9.81697821,4.11496508 C9.86452945,4.05041353 10.1506567,3.9874962 10.2154248,3.96298296 C10.5269674,3.84858781 10.83851,3.75053482 11.1500526,3.66065292 C11.4369998,3.5789421 11.7239469,3.51357344 12.0108941,3.45637587 C12.1584669,3.42369154 12.3060397,3.3991783 12.445414,3.37466505 C12.4585316,3.37303083 12.4716492,3.37139662 12.4855866,3.3697624 C12.4937851,3.36567686 12.5331379,3.35832289 12.6175823,3.3501518 C12.6241411,3.3493347 12.6306999,3.34851759 12.6372587,3.34770048 C12.6470969,3.34688337 12.6569351,3.34443205 12.6667732,3.34198072 C12.6618542,3.34361494 12.6569351,3.34524915 12.652016,3.34606626 C13.2808401,3.27579496 13.9244216,3.25291593 14.5524259,3.27661207 C14.85577,3.29295423 15.1591141,3.30929639 15.4542598,3.3501518 C15.4813148,3.35342024 15.5042706,3.35587156 15.5223072,3.35750578 C15.2402792,3.31338193 15.7781001,3.38610456 15.5223072,3.35750578 C15.5378844,3.3599571 15.555921,3.36322553 15.5772371,3.36649397 C15.7412069,3.39100721 15.9051767,3.42369154 16.0691465,3.45637587 C16.6758347,3.5789421 17.282523,3.75053482 17.8646157,3.96298296 C17.9384022,3.9874962 18.2335478,4.05286486 18.2663417,4.11823351 C18.3015953,4.13457568 18.3376686,4.14928363 18.3729221,4.16726001 C18.6516708,4.29799732 18.9222209,4.43690571 19.1927711,4.58398519 C19.4469243,4.72289358 19.692879,4.86997306 19.9306352,5.02522362 C20.0839469,5.12654504 20.3749933,5.26790476 20.5553601,5.41825267 C20.5250257,5.40354472 20.5250257,5.42969218 20.5947128,5.4909753 C20.6521023,5.54000179 20.7094917,5.5808572 20.7586826,5.62988369 C20.865263,5.71976559 20.9800419,5.81781858 21.0866222,5.90770048 C21.3243784,6.12014861 21.5539361,6.34076783 21.7752954,6.57772921 C21.9720591,6.78200626 22.1606244,6.99445439 22.3491896,7.2150736 C22.3983806,7.27227118 22.439373,7.32946875 22.488564,7.37849524 C22.5287366,7.42670463 22.5541519,7.4438639 22.5623504,7.43977836 C22.5197182,7.37849524 22.4754464,7.32374899 22.4311745,7.29678442 C22.5377549,7.36051886 22.5787474,7.43487571 22.5623504,7.43977836 C22.6213795,7.52475761 22.6754895,7.62362771 22.7181217,7.68082528 C23.0542598,8.16291912 23.3658024,8.6695262 23.628154,9.19247545 C23.693742,9.32321277 23.7593299,9.45395008 23.8167193,9.57651631 C23.834756,9.61165196 23.8495133,9.64760472 23.8659102,9.68274038 C23.8667301,9.68355748 23.8683698,9.68437459 23.8691896,9.68600881 C23.9339577,9.73340109 23.9970861,10.0185718 24.0216816,10.0831234 C24.0872695,10.2547161 24.1446589,10.4263088 24.2020483,10.5979016 C24.3906136,11.1780484 24.5299879,11.7663663 24.6283698,12.3628553 C24.632469,12.3881856 24.6357484,12.4094305 24.638208,12.4265897 C24.6078736,12.1536756 24.6800203,12.6807104 24.638208,12.4265897 C24.6398477,12.4429319 24.6423072,12.4625425 24.6447668,12.4854215 C24.6611638,12.632501 24.6775607,12.7877515 24.6857592,12.934831 C24.7103547,13.2780165 24.7185532,13.6048598 24.7185532,13.923532 C24.7185532,14.225862 24.7103547,14.528192 24.6857592,14.8386931 M24.6274674,15.5087219 C24.6344674,15.4662322 24.6414674,15.4294624 24.6464674,15.3984123 C24.6424674,15.4433532 24.6374674,15.4882942 24.6274674,15.5087219 M7.49146958,5.45860073 C7.47646958,5.47260073 7.46346958,5.48660073 7.45046958,5.50160073 C7.46446958,5.48460073 7.47846958,5.46960073 7.49146958,5.45860073 M20.6766977,5.54817287 C20.6496427,5.50568324 20.6086503,5.46237651 20.5578196,5.41988688 C20.5848746,5.4321435 20.6324259,5.47381602 20.6766977,5.54817287 M25.4810127,5.95672697 C23.7839254,3.59528426 21.4719512,1.83033055 18.7418542,0.817116374 C13.3718434,-1.16028548 6.96882287,0.571983913 3.33689191,4.98436821 C1.46763625,7.25592901 0.360840129,9.96055717 0.114885437,12.8939756 C-0.122870766,15.7375122 0.598596332,18.6872728 2.09072147,21.1304263 C3.50906019,23.4591847 5.64066753,25.4039022 8.1412069,26.5315115 C10.904098,27.773516 13.9129437,28.1330436 16.8889955,27.5447257 C22.4065791,26.4498007 26.9567409,21.7677707 27.8011853,16.219606 C27.9151443,15.4654151 27.9963094,14.7112243 27.9979491,13.9415083 L27.9979491,13.923532 C27.9815521,11.1045086 27.1289092,8.2609721 25.4810127,5.95672697" id="Fill-108" fill="#6D3078" mask="url(#mask-4)"></path>
            </g>
            <path d="M13.9550705,15.5338153 C13.9550705,15.6318682 13.8860705,15.4063464 13.9290705,15.3638568 C13.9150705,15.3752963 13.9390705,15.4725321 13.9550705,15.5338153" id="Fill-111" fill="#000000"></path>
            <path d="M13.9465864,12.501494 C13.8925864,12.7825793 13.9815864,12.2465563 13.9465864,12.501494" id="Fill-113" fill="#000000"></path>
            <path d="M14.649157,9.89249205 C14.676157,9.84264845 14.712157,9.77646269 14.722157,9.76175474 C14.707157,9.79035353 14.692157,9.81976942 14.674157,9.84836821 C14.665157,9.86552748 14.657157,9.88023543 14.649157,9.89249205" id="Fill-115" fill="#000000"></path>
            <path d="M14.6970767,18.1665134 C14.7090767,18.1926608 14.7140767,18.2057346 14.7150767,18.2106372 C14.6970767,18.1844898 14.5580767,17.9050387 14.6770767,18.125658 C14.6800767,18.1305606 14.6830767,18.1354633 14.6850767,18.1403659 C14.6890767,18.1493541 14.6930767,18.1575252 14.6970767,18.1665134" id="Fill-117" fill="#000000"></path>
            <path d="M16.1101225,7.40522285 C16.0871668,7.43709007 16.064211,7.46814019 16.0404354,7.50000741 C15.9248367,7.62502496 16.2290006,7.23117881 16.1101225,7.40522285" id="Fill-119" fill="#000000"></path>
            <path d="M17.9855447,5.53435484 C17.9705447,5.54835484 17.9575447,5.56235484 17.9445447,5.57735484 C17.9585447,5.56035484 17.9725447,5.54535484 17.9855447,5.53435484" id="Fill-121" fill="#000000"></path>
            <path d="M20.430743,23.8665284 C20.6275068,23.9765284 20.1355974,23.7265284 20.3405597,23.8165284 C20.3471184,23.8195284 20.3528574,23.8215284 20.3594162,23.8255284 C20.3831918,23.8385284 20.4069674,23.8525284 20.430743,23.8665284" id="Fill-123" fill="#000000"></path>
            <path d="M20.3110533,4.197618 C20.3463068,4.16944914 20.6644082,4.02244289 20.3979573,4.15712526 C20.3676229,4.17297025 20.3381083,4.18793496 20.3077739,4.20113911 C20.3077739,4.20025883 20.3094136,4.19937856 20.3110533,4.197618" id="Fill-125" fill="#000000"></path>
            <path d="M22.9796453,3.45687763 C23.0304759,3.45077763 23.0837661,3.44287763 23.1313174,3.42977763 C23.1362365,3.42977763 23.1411556,3.42887763 23.1460746,3.42787763 C23.0493325,3.46287763 22.9640682,3.46687763 22.9796453,3.45687763" id="Fill-127" fill="#000000"></path>
            <path d="M23.1526662,24.5831897 C23.1083944,24.6191897 22.8640794,24.5491897 22.9968949,24.5581897 C23.0583836,24.5721897 23.1420082,24.5891897 23.1526662,24.5831897" id="Fill-129" fill="#000000"></path>
            <path d="M26.0163659,3.44323612 C25.7343379,3.38923612 26.2721588,3.47823612 26.0163659,3.44323612" id="Fill-131" fill="#000000"></path>
            <path d="M25.907326,24.5828654 C25.9188039,24.5968654 26.0163659,24.5728654 26.0778546,24.5568654 C26.1762365,24.5568654 25.9499581,24.6258654 25.907326,24.5828654" id="Fill-133" fill="#000000"></path>
            <path d="M28.6702334,4.16014903 C28.6530166,4.15114903 28.6382593,4.14314903 28.6259616,4.13514903 C28.6759724,4.16214903 28.7423802,4.19814903 28.7571374,4.20814903 C28.7284427,4.19314903 28.6989282,4.17814903 28.6702334,4.16014903" id="Fill-135" fill="#000000"></path>
            <path d="M28.6784401,23.8329888 C28.7087745,23.81688 28.7382891,23.8016663 28.7686235,23.7882423 C28.7284509,23.8562569 28.6062934,23.8992135 28.6013743,23.8857895 C28.5980949,23.879525 28.6177713,23.8634163 28.6784401,23.8329888" id="Fill-137" fill="#000000"></path>
            <path d="M31.0518947,5.49561647 C31.0789497,5.50787309 31.126501,5.54954561 31.1707728,5.62390246 C31.1437178,5.58141283 31.1027254,5.5381061 31.0518947,5.49561647 Z" id="Fill-139" fill="#000000"></path>
            <path d="M33.0564255,7.51549978 C33.0137933,7.45421666 32.9695215,7.39947041 32.9252496,7.37250584 C33.03183,7.43624028 33.0728224,7.51059713 33.0564255,7.51549978" id="Fill-141" fill="#000000"></path>
            <path d="M34.4301229,18.0848026 C34.5401229,17.8886966 34.2901229,18.3789615 34.3801229,18.1746845 C34.3811229,18.1730502 34.3811229,18.171416 34.3821229,18.1697818 C34.3971229,18.141183 34.4131229,18.1134013 34.4301229,18.0848026" id="Fill-143" fill="#000000"></path>
            <path d="M34.3634982,9.76174657 C34.3916671,9.79688222 34.5386734,10.1139202 34.403991,9.84836004 C34.388146,9.81812703 34.3731813,9.78871114 34.3599771,9.75847814 C34.3608574,9.75929524 34.362618,9.76011235 34.3634982,9.76174657" id="Fill-145" fill="#000000"></path>
            <path d="M35.1421933,15.4128832 C35.1501933,15.3777476 35.1541933,15.3605883 35.1551933,15.3614054 C35.1551933,15.3679423 35.1491933,15.4055293 35.1371933,15.4733492 C35.1381933,15.4537387 35.1401933,15.4333109 35.1411933,15.4161517 C35.1411933,15.4153346 35.1421933,15.4137004 35.1421933,15.4128832" id="Fill-147" fill="#000000"></path>
            <path d="M35.1406455,12.5023357 C35.1036455,12.2294215 35.1916455,12.7564563 35.1406455,12.5023357" id="Fill-149" fill="#000000"></path>
        </g>
    </g>
</svg>