<?xml version="1.0" encoding="UTF-8"?>
<svg width="100px" height="100px" viewBox="0 0 100 100" version="1.1" xmlns="http://www.w3.org/2000/svg" xmlns:xlink="http://www.w3.org/1999/xlink">
    <!-- Generator: Sketch 53.2 (72643) - https://sketchapp.com -->
    <title>Artboard</title>
    <desc>Created with Sketch.</desc>
    <defs>
        <polygon id="path-1" points="0.000380952381 0.0154950617 79.1552381 0.0154950617 79.1552381 20.9135802 0.000380952381 20.9135802"></polygon>
    </defs>
    <g id="Artboard" stroke="none" stroke-width="1" fill="none" fill-rule="evenodd">
        <g id="Group-3" transform="translate(10.000000, 67.936983)">
            <mask id="mask-2" fill="white">
                <use xlink:href="#path-1"></use>
            </mask>
            <g id="Clip-2"></g>
            <path d="M68.395619,3.23428519 L75.0946667,18.2797049 L4.06038095,18.2797049 L10.7889524,3.16869259 C10.3432381,2.13061852 9.84419048,1.07638395 9.30609524,0.0154950617 L0.000380952381,20.9138654 L79.155619,20.9138654 L69.8737143,0.0658777778 C69.340381,1.13247037 68.8394286,2.19335926 68.395619,3.23428519" id="Fill-1" fill="#6D3078" mask="url(#mask-2)"></path>
        </g>
        <path d="M25.8314286,52.6379383 C22.187619,52.6379383 19.2342857,49.6910247 19.2342857,46.053963 C19.2342857,42.6193827 21.8733333,39.8359753 25.232381,39.5308272 C24.76,37.5925185 24.5114286,35.6009753 24.5114286,33.6027778 C24.5114286,33.4050494 24.5390476,33.2120741 24.5428571,33.0124444 C17.8714286,33.6702716 12.6380952,39.238037 12.6380952,46.0881852 C12.6380952,48.2631975 13.1657143,50.3127284 14.0980952,52.1198519 C16.8733333,59.201 23.5304762,68.0217778 25.0419048,75.6799506 L26.6885714,75.6799506 C27.7438095,70.3308272 31.2638095,64.4255926 34.2457143,58.9300741 C32.7552381,56.2388765 31.3295238,53.6256296 30.04,51.0846296 C28.8971429,52.04 27.44,52.6379383 25.8314286,52.6379383 Z" id="Stroke-4" stroke="#6D3078" stroke-width="2.38095238"></path>
        <path d="M74.6120952,33.0147259 C74.6178095,33.2153062 74.6435238,33.4073309 74.6435238,33.6050593 C74.6435238,35.6042074 74.3930476,37.5948 73.9225714,39.5331086 C77.2825714,39.8363556 79.9206667,42.6226148 79.9206667,46.0562444 C79.9206667,49.6933062 76.9682857,52.6411704 73.3235238,52.6411704 C71.7178095,52.6411704 70.2644762,52.0432321 69.1178095,51.089763 C67.8368571,53.6383679 66.4149524,56.2563679 64.934,58.9504173 C67.934,64.4421333 71.4778095,70.3388123 72.5349524,75.685084 L74.1825714,75.685084 C75.694,68.0259605 82.2797143,59.207084 85.0578095,52.1249852 C85.9892381,50.312158 86.5168571,48.2664296 86.5168571,46.0904667 C86.5168571,39.2403185 81.2873333,33.6735037 74.6120952,33.0147259 Z" id="Stroke-6" stroke="#6D3078" stroke-width="2.38095238"></path>
        <path d="M33.8652381,65.1482519 C33.3909524,66.0275728 32.9290476,66.9078444 32.4880952,67.7824123 L39.0290476,67.7824123 C38.5804762,66.9078444 38.1214286,66.0275728 37.6519048,65.1482519 L33.8652381,65.1482519 Z" id="Fill-8" fill="#6D3078"></path>
        <path d="M66.7149524,67.781937 C66.2682857,66.9073691 65.801619,66.0270975 65.3273333,65.1477765 L61.5644762,65.1477765 C61.0997143,66.0270975 60.6435238,66.9073691 60.1978095,67.781937 L66.7149524,67.781937 Z" id="Fill-10" fill="#6D3078"></path>
        <path d="M49.5777143,12.4754037 C37.9186667,12.4754037 28.4700952,21.9349963 28.4700952,33.6019222 C28.4700952,37.0783296 29.3139048,40.3570086 30.799619,43.2487864 C35.2453333,54.5839469 45.8967619,68.6958605 48.319619,80.9464654 L50.9491429,80.9464654 C53.372,68.6958605 63.9100952,54.5820457 68.3539048,43.2487864 C69.8415238,40.3570086 70.6881905,37.0783296 70.6881905,33.6019222 C70.6862857,21.9349963 61.2348571,12.4754037 49.5777143,12.4754037 Z" id="Stroke-12" stroke="#6D3078" stroke-width="2.85714286"></path>
        <circle id="Oval" stroke="#F37435" stroke-width="2" cx="49.5" cy="33.5" r="10.5"></circle>
    </g>
</svg>