<?xml version="1.0" encoding="UTF-8"?>
<svg width="100px" height="100px" viewBox="0 0 100 100" version="1.1" xmlns="http://www.w3.org/2000/svg" xmlns:xlink="http://www.w3.org/1999/xlink">
    <!-- Generator: Sketch 53.2 (72643) - https://sketchapp.com -->
    <title>Artboard Copy 2</title>
    <desc>Created with Sketch.</desc>
    <defs>
        <polygon id="path-1" points="0.0003 0.539 41.102 0.539 41.102 71 0.0003 71"></polygon>
    </defs>
    <g id="Artboard-Copy-2" stroke="none" stroke-width="1" fill="none" fill-rule="evenodd">
        <g id="Group-3" transform="translate(29.000000, 14.461200)">
            <mask id="mask-2" fill="white">
                <use xlink:href="#path-1"></use>
            </mask>
            <g id="Clip-2"></g>
            <path d="M38.1663,10.8145 L2.9363,10.8145 L2.9363,4.9425 C2.9363,4.0625 3.5233,3.4745 4.4043,3.4745 L36.6983,3.4745 C37.5793,3.4745 38.1663,4.0625 38.1663,4.9425 L38.1663,10.8145 Z M2.9363,57.7885 L38.1663,57.7885 L38.1663,13.7505 L2.9363,13.7505 L2.9363,57.7885 Z M38.1663,66.5955 C38.1663,67.4765 37.5793,68.0645 36.6983,68.0645 L4.4043,68.0645 C3.5233,68.0645 2.9363,67.4765 2.9363,66.5955 L2.9363,60.7245 L38.1663,60.7245 L38.1663,66.5955 Z M36.6983,0.5385 L4.4043,0.5385 C1.9083,0.5385 0.0003,2.4475 0.0003,4.9425 L0.0003,66.5955 C0.0003,69.0915 1.9083,71.0005 4.4043,71.0005 L36.6983,71.0005 C39.1943,71.0005 41.1023,69.0915 41.1023,66.5955 L41.1023,4.9425 C41.1023,2.4475 39.1943,0.5385 36.6983,0.5385 L36.6983,0.5385 Z" id="Fill-1" fill="#6D3078" mask="url(#mask-2)"></path>
        </g>
        <polygon id="Fill-1" fill="#F37435" points="57.5137112 43 57.5137112 44.7969321 58.9396709 44.7969321 52.1170018 51.6121256 47.6196344 47.1197955 38 56.7289993 39.2723949 58 47.6196344 49.6616874 52.1170018 54.1431702 60.2010969 46.0679328 60.2010969 47.4922206 62 47.4922206 62 43"></polygon>
        <path d="M48.5239,23.3674 C49.4049,23.3674 49.9919,22.7804 49.9919,21.8994 C49.9919,21.0184 49.4049,20.4314 48.5239,20.4314 L44.1199,20.4314 C43.2389,20.4314 42.6519,21.0184 42.6519,21.8994 C42.6519,22.6334 43.3859,23.3674 44.1199,23.3674 L48.5239,23.3674 Z" id="Fill-4" fill="#6D3078"></path>
        <path d="M53.5144,23.3674 L54.9824,23.3674 C55.8634,23.3674 56.4504,22.7804 56.4504,21.8994 C56.4504,21.0184 55.8634,20.4314 54.9824,20.4314 L53.5144,20.4314 C52.6344,20.4314 52.0464,21.0184 52.0464,21.8994 C52.0464,22.6334 52.6344,23.3674 53.5144,23.3674" id="Fill-6" fill="#6D3078"></path>
        <path d="M51.4597,77.5344 L47.0557,77.5344 C46.1747,77.5344 45.5877,78.1214 45.5877,79.0024 C45.5877,79.8834 46.1747,80.4704 47.0557,80.4704 L51.4597,80.4704 C52.3397,80.4704 52.9277,79.8834 52.9277,79.0024 C52.9277,78.2674 52.1937,77.5344 51.4597,77.5344" id="Fill-8" fill="#6D3078"></path>
    </g>
</svg>