<svg width="64" height="64" xmlns="http://www.w3.org/2000/svg">

 <g>
  <title>background</title>
  <rect fill="none" id="canvas_background" height="402" width="582" y="-1" x="-1"/>
 </g>
 <g>
  <title>Layer 1</title>
  <path fill="#6d3078" id="svg_2" d="m49.53289,45.29431l-6.47852,-4.52685c-0.84716,-0.58985 -1.8374,-0.90186 -2.86425,-0.90186c-1.6333,0 -3.16553,0.80078 -4.09912,2.14063l-1.50391,2.15527c-2.52051,-1.69043 -5.3335,-4.05078 -8.01367,-6.73096s-5.04053,-5.49316 -6.73096,-8.01367l2.1543,-1.50342c2.26123,-1.57471 2.81738,-4.69873 1.23877,-6.96533l-4.52588,-6.47705c-0.94678,-1.354 -2.47412,-2.1626 -4.08545,-2.1626c-0.55859,0 -1.10596,0.09815 -1.62793,0.29102c-0.59229,0.21924 -1.14404,0.4873 -1.68457,0.82666l-0.89453,0.62988c-0.22412,0.17432 -0.43262,0.36475 -0.63037,0.56299c-1.09082,1.09082 -1.86573,2.47168 -2.30323,4.10547c-1.86474,6.99121 2.75489,17.56054 11.49561,26.30029c7.33935,7.33984 16.15723,11.8999 23.01221,11.90088c0.00048,0 0.00097,0 0.00146,0c1.17285,0 2.27832,-0.13672 3.2876,-0.40576c1.63281,-0.43701 3.01367,-1.21192 4.10303,-2.30176c0.1997,-0.19873 0.39013,-0.40723 0.59326,-0.67041l0.63086,-0.90039c0.30957,-0.49561 0.57763,-1.04736 0.79687,-1.63965c0.7627,-2.06055 -0.00683,-4.40967 -1.87158,-5.71338z"/>
  <path fill="#6d3078" id="svg_3" d="m54.09002,41.20691l-1.77863,0c6.62244,-8.23847 6.11872,-20.34937 -1.52313,-27.99121c-8.1875,-8.18848 -21.51074,-8.18848 -29.69824,0c-0.39063,0.39062 -0.39063,1.02344 0,1.41406s1.02344,0.39063 1.41406,0c7.4082,-7.4082 19.46192,-7.4082 26.87012,0c6.77551,6.77551 7.33404,17.42658 1.71582,24.86585l0,-1.2887c0,-0.55225 -0.44775,-1 -1,-1s-1,0.44775 -1,1l0,3.95483c-0.01245,0.27094 0.07715,0.54517 0.28418,0.7522c0.19531,0.19531 0.45117,0.29297 0.70703,0.29297c0.00153,0 0.00293,-0.00086 0.00446,-0.00086s0.0028,0.00086 0.00433,0.00086l4,0c0.55225,0 1,-0.44775 1,-1s-0.44775,-1 -1,-1z"/>
  <path fill="#6d3078" id="svg_4" d="m44.55047,19.42273c-0.40381,-0.13867 -0.84912,-0.01025 -1.11279,0.32519l-5,6.3335c-0.2378,0.30078 -0.28223,0.71094 -0.11524,1.05566s0.5166,0.56397 0.8999,0.56397l4,0l0,2.29492c0,0.55225 0.44776,1 1,1s1,-0.44775 1,-1l0,-2.29492l1.4375,0c0.55225,0 1,-0.44775 1,-1s-0.44775,-1 -1,-1l-1.4375,0l0,-5.3335c0,-0.42578 -0.26953,-0.80517 -0.67187,-0.94482zm-1.32813,6.27832l-1.93652,0l1.93652,-2.45313l0,2.45313z"/>
  <path fill="#6d3078" id="svg_5" d="m30.46014,29.20837c-0.33594,0.26319 -0.46827,0.70996 -0.32911,1.11377c0.13916,0.40332 0.51856,0.67383 0.94532,0.67383l6.10449,0c0.55225,0 1,-0.44775 1,-1s-0.44775,-1 -1,-1l-3.37744,0c1.08935,-1.00635 2.00586,-2.00976 2.77148,-3.03174c1.14405,-1.52783 1.50098,-2.97216 1.06104,-4.29394c-0.51856,-1.56104 -1.86426,-2.50098 -3.43653,-2.38574c-1.76464,0.12548 -3.22753,1.48632 -3.55761,3.30957c-0.09864,0.54345 0.2622,1.06396 0.80566,1.16211c0.54102,0.10009 1.06397,-0.26221 1.16211,-0.80567c0.19531,-1.07764 1.03467,-1.62158 1.73193,-1.67139c0.37891,-0.02734 1.07911,0.06788 1.39698,1.02295c0.22363,0.67188 -0.02637,1.47754 -0.76416,2.46289c-1.10987,1.48145 -2.58692,2.93506 -4.51416,4.44336z"/>
 </g>
</svg>