<?xml version="1.0" encoding="UTF-8"?>
<svg width="48px" height="48px" viewBox="0 0 48 48" version="1.1" xmlns="http://www.w3.org/2000/svg" xmlns:xlink="http://www.w3.org/1999/xlink">
    <!-- Generator: Sketch 53.2 (72643) - https://sketchapp.com -->
    <title>1</title>
    <desc>Created with Sketch.</desc>
    <defs>
        <polygon id="path-1" points="0 0.00620781007 19.9900913 0.00620781007 19.9900913 23.3689551 0 23.3689551"></polygon>
    </defs>
    <g id="Mobile_Homepage" stroke="none" stroke-width="1" fill="none" fill-rule="evenodd">
        <g id="02_Mobile_Homepage_Menu" transform="translate(-84.000000, -209.000000)">
            <g id="1" transform="translate(84.000000, 209.000000)">
                <circle id="Oval" fill="#FFF2F0" cx="24" cy="24" r="24"></circle>
                <g id="8" transform="translate(14.000000, 12.000000)">
                    <g id="Group-3" transform="translate(0.000000, 0.039435)">
                        <mask id="mask-2" fill="white">
                            <use xlink:href="#path-1"></use>
                        </mask>
                        <g id="Clip-2"></g>
                        <path d="M10.5667489,11.3902017 C13.4163379,11.3746376 15.7216804,9.05905349 15.7067489,6.22734332 C15.6917717,3.39467465 13.3801735,1.0924182 10.555653,1.09698246 C7.72309589,1.10159235 5.38442009,3.45076936 5.41446575,6.2612101 C5.44487671,9.10889516 7.752,11.4055832 10.5667489,11.3902017 L10.5667489,11.3902017 Z M10.5020457,23.3689551 C10.2506758,23.2468156 10.1202192,23.0417435 10.0665205,22.7708549 C9.85099543,21.683923 9.6316347,20.5977213 9.40569863,19.5129345 C9.38884932,19.4320103 9.32569863,19.3339244 9.25565297,19.2952195 C8.79003653,19.0383432 8.31953425,18.7897738 7.84309589,18.5537105 C7.76432877,18.5146861 7.6363379,18.5208935 7.55186301,18.5560382 C6.83218265,18.8552709 6.08542466,19.0017378 5.30652055,18.9890949 C2.90076712,18.9501617 0.804237443,17.3094486 0.186703196,14.9835949 C-0.027543379,14.1766344 -0.0577260274,13.363923 0.0977990868,12.5437718 C0.145835616,12.2905925 0.279305936,12.1239971 0.534328767,12.0424339 C2.56442009,11.3932597 4.45647489,11.6617293 6.18168037,12.9202773 C7.212,13.671919 7.91432877,14.679159 8.32250228,15.8876828 C8.42706849,16.1973676 8.29122374,16.4939073 8.00939726,16.6027192 C7.73044749,16.7104356 7.42601826,16.5831385 7.30606393,16.2717649 C7.09172603,15.7152908 6.8310411,15.1888039 6.46387215,14.7148515 C5.26063014,13.1618634 3.20674886,12.4621629 1.30305023,12.9564718 C1.17410046,12.9899735 1.13980822,13.0449728 1.12779909,13.1701247 C0.90286758,15.5126835 2.59081279,17.5821172 4.9459726,17.8531884 C5.45957991,17.9122955 5.96158904,17.8698023 6.50761644,17.7388082 C6.41871233,17.6730372 6.35647489,17.6285357 6.29583562,17.5819803 C5.34314155,16.8510603 4.38638356,16.1252523 3.44049315,15.3856602 C3.11492237,15.1311117 3.08533333,14.7581207 3.33556164,14.5171736 C3.51907763,14.3404912 3.78784475,14.3034751 4.00437443,14.4520416 C4.19172603,14.5805255 4.36391781,14.7321957 4.53684018,14.8805797 C5.95131507,16.0944892 7.49359817,17.1183888 9.14364384,17.9824938 C9.17556164,17.999199 9.20916895,18.0127092 9.28647489,18.0480365 C9.18962557,16.1452438 9.3003105,14.2875459 9.64957991,12.4675487 C9.18871233,12.3300733 8.74615525,12.2390164 8.33638356,12.0689522 C6.07259361,11.1295827 4.71821005,9.4516708 4.38250228,7.01536215 C3.94090411,3.8107066 6.1510411,0.755530452 9.32400913,0.12849294 C12.4797169,-0.495121381 15.5545571,1.31853145 16.5329589,4.38055399 C17.5195799,7.46854714 15.8925023,10.8748059 12.8713151,12.0500562 C12.2791689,12.2803686 11.6707215,12.437379 11.0343288,12.4636691 C10.8404932,12.4716565 10.7536895,12.5241455 10.7131872,12.7404912 C10.3279361,14.796643 10.2635068,16.8637946 10.4639178,18.9421743 C10.4908584,19.2218719 10.5362922,19.4997895 10.5746484,19.778346 C10.578621,19.8071008 10.5931872,19.8343951 10.6091233,19.880631 C10.9193516,19.7163634 11.2243288,19.5632326 11.5183014,19.3915253 C11.5705845,19.3609904 11.5989406,19.2536391 11.6019543,19.1803372 C11.6352877,18.3739244 11.7938721,17.5962208 12.1444658,16.8664875 C13.0191233,15.0463078 14.4462009,13.9168826 16.4259269,13.5119418 C17.4769315,13.297011 18.5133242,13.4012586 19.5272511,13.7538474 C19.8159269,13.854261 19.9493973,14.0338645 19.9706758,14.3401261 C20.1173425,16.4530116 19.4345571,18.2474032 17.8836895,19.687426 C16.8180731,20.6769111 15.5374338,21.2166344 14.0830959,21.3204713 C13.7743288,21.3425623 13.4600822,21.3421971 13.1525023,21.3111145 C12.9081187,21.2864219 12.7545114,21.0755076 12.7395342,20.835519 C12.7246484,20.5958043 12.8529589,20.364077 13.0739635,20.2935593 C13.2081187,20.2507922 13.3583014,20.2441284 13.5011781,20.2449043 C15.0160639,20.25312 16.3157443,19.725355 17.3779817,18.6517963 C18.2345114,17.7860482 18.7293059,16.7343979 18.8570685,15.5182975 C18.8792603,15.3070181 18.8795342,15.0935479 18.8970228,14.8816294 C18.9070228,14.760631 18.8622283,14.7128432 18.7410411,14.6833125 C16.9986667,14.25943 15.4711781,14.6680223 14.1670228,15.8836206 C13.3674338,16.6288267 12.9103105,17.5643623 12.732,18.7099449 C13.3465205,18.2740585 13.92579,17.8841341 14.4813151,17.4629902 C14.971863,17.0910489 15.4378904,16.6866102 15.9107671,16.2917564 C16.1057443,16.1289037 16.3141461,16.0430957 16.5609041,16.1474346 C16.94579,16.3100591 17.0077534,16.7852894 16.6725023,17.0850697 C16.3267945,17.3942525 15.9707215,17.6927548 15.6071598,17.980805 C14.1484384,19.1366573 12.5903105,20.1374617 10.9188493,20.9595299 C10.8725936,20.9823055 10.8302192,21.013023 10.7665662,21.0520017 C10.888484,21.5320702 11.0060183,22.0104042 11.1319087,22.4864561 C11.2562009,22.956255 11.1926849,23.122394 10.7760183,23.3689551 L10.5020457,23.3689551 Z" id="Fill-1" fill="#6D3078" mask="url(#mask-2)"></path>
                    </g>
                    <path d="M8.75159361,3.44945486 L12.8481689,3.44945486 L12.8481689,3.45799002 C12.6068447,3.82974868 12.470589,4.02833947 12.4393562,4.05385366 L11.3449269,4.05385366 C11.4953836,4.22989702 11.597621,4.44409756 11.6515479,4.69659221 L12.8183973,4.69659221 C12.8325525,4.69951334 12.8396758,4.70512737 12.8396758,4.71361689 C12.5784429,5.10523007 12.4450183,5.30103666 12.4393562,5.30103666 L11.681411,5.30103666 C11.664379,5.50254857 11.5678037,5.74523007 11.3918219,6.02894423 C11.1589909,6.31562516 10.9361598,6.50143603 10.7232374,6.58655941 C10.3257489,6.77670632 9.9453379,6.87173413 9.58200457,6.87173413 L9.58200457,6.88026929 C9.58200457,6.90865896 9.67141096,7.02646242 9.85026941,7.23354272 L11.8730091,9.67263557 L11.8730091,9.7875179 C11.8730091,9.7988829 11.8658858,9.80454258 11.8517306,9.80454258 L10.9617306,9.80454258 C9.36054338,7.94018086 8.55994977,7.00368678 8.55994977,6.99519726 L8.55994977,6.42904693 L8.56848858,6.40777749 C8.71040639,6.42767765 8.87647945,6.43758209 9.06670776,6.43758209 C9.96378539,6.43758209 10.5216393,6.14674768 10.7402694,5.56498759 C10.7743333,5.47981857 10.7913653,5.391911 10.7913653,5.30103666 L8.35556621,5.30103666 C8.34424201,5.30103666 8.33853425,5.29537698 8.33853425,5.28401198 C8.60816895,4.8923988 8.74588584,4.69659221 8.75159361,4.69659221 L10.6849269,4.69659221 L10.6849269,4.6881027 C10.5741963,4.46399772 10.3598128,4.28941492 10.0418676,4.16453687 C9.81474429,4.09077849 9.61031507,4.05385366 9.42867123,4.05385366 L8.3470274,4.05385366 L8.3470274,4.03258422 C8.60816895,3.64384653 8.74305479,3.44945486 8.75159361,3.44945486" id="Fill-4" fill="#F37435"></path>
                </g>
            </g>
        </g>
    </g>
</svg>