<svg xmlns="http://www.w3.org/2000/svg" xmlns:xlink="http://www.w3.org/1999/xlink" width="20" height="20" version="1.1"><rect id="backgroundrect" width="100%" height="100%" x="0" y="0" fill="none" stroke="none"/>

<g class="currentLayer" style=""><title>Layer 1</title><g id="surface1" class="" fill-opacity="1" fill="#f37435">
<path style="stroke: none; fill-rule: nonzero; fill-opacity: 1;" d="M 10 6.667969 C 8.160156 6.667969 6.667969 8.160156 6.667969 10 C 6.667969 11.839844 8.160156 13.332031 10 13.332031 C 11.839844 13.332031 13.332031 11.839844 13.332031 10 C 13.332031 8.160156 11.839844 6.667969 10 6.667969 Z M 17.449219 9.167969 C 17.066406 5.691406 14.308594 2.933594 10.832031 2.550781 L 10.832031 0.832031 L 9.167969 0.832031 L 9.167969 2.550781 C 5.691406 2.933594 2.933594 5.691406 2.550781 9.167969 L 0.832031 9.167969 L 0.832031 10.832031 L 2.550781 10.832031 C 2.933594 14.308594 5.691406 17.066406 9.167969 17.449219 L 9.167969 19.167969 L 10.832031 19.167969 L 10.832031 17.449219 C 14.308594 17.066406 17.066406 14.308594 17.449219 10.832031 L 19.167969 10.832031 L 19.167969 9.167969 Z M 10 15.832031 C 6.777344 15.832031 4.167969 13.222656 4.167969 10 C 4.167969 6.777344 6.777344 4.167969 10 4.167969 C 13.222656 4.167969 15.832031 6.777344 15.832031 10 C 15.832031 13.222656 13.222656 15.832031 10 15.832031 Z M 10 15.832031 " id="svg_1" fill="#f37435"/>
</g></g></svg>