<?xml version="1.0" encoding="UTF-8"?>
<svg width="20px" height="20px" viewBox="0 0 20 20" version="1.1" xmlns="http://www.w3.org/2000/svg" xmlns:xlink="http://www.w3.org/1999/xlink">
    <!-- Generator: Sketch 53.1 (72631) - https://sketchapp.com -->
    <title>key</title>
    <desc>Created with Sketch.</desc>
    <g id="Mansi" stroke="none" stroke-width="1" fill="none" fill-rule="evenodd">
        <g id="01_Homepage-Menu" transform="translate(-157.000000, -492.000000)" fill-rule="nonzero">
            <g id="1" transform="translate(0.000000, 157.000000)">
                <g id="key" transform="translate(157.000000, 335.000000)">
                    <path d="M13.121502,0 C9.35,0 6.28162055,3.03242188 6.28162055,6.75972656 C6.28162055,7.58835938 6.43059289,8.39359375 6.72474308,9.15828125 L0.184664032,15.6221875 C0.0911857708,15.7146094 0.0386561265,15.8398828 0.0386561265,15.9705078 L0.0386561265,19.5073828 C0.0386561265,19.7794531 0.261818182,20 0.537114625,20 L3.48636364,20 C3.61841897,20 3.74505929,19.9482422 3.83853755,19.8560156 L4.83241107,18.8752734 C4.92608696,18.7828516 4.97869565,18.6574219 4.97869565,18.5266406 L4.97869565,17.3205469 L6.19754941,17.3205469 C6.47284585,17.3205469 6.69600791,17.1 6.69600791,16.8279297 L6.69600791,16.3451172 L7.18458498,16.3451172 C7.4598419,16.3451172 7.68304348,16.1245703 7.68304348,15.8525 L7.68304348,14.7925 L8.75561265,14.7925 C8.88778656,14.7925 9.01454545,14.7405859 9.10806324,14.6482031 L10.6938735,13.0809766 C11.467747,13.3719531 12.2826482,13.519375 13.1214229,13.519375 C16.8929249,13.519375 19.9613043,10.4869531 19.9613043,6.75964844 C19.9613439,3.03242188 16.893004,0 13.121502,0 Z M13.121502,12.5341406 C12.3056126,12.5341406 11.5165217,12.3712891 10.776087,12.0500391 C10.5846245,11.9669922 10.3690119,12.0126953 10.2278261,12.1486719 C10.2262846,12.1501172 10.2247826,12.1512891 10.2232806,12.1528125 L8.54920949,13.8072656 L7.18466403,13.8072656 C6.90936759,13.8072656 6.68620553,14.0278125 6.68620553,14.2998828 L6.68620553,15.3598828 L6.19762846,15.3598828 C5.92237154,15.3598828 5.69916996,15.5804297 5.69916996,15.8525 L5.69916996,16.3353125 L4.48027668,16.3353125 C4.20501976,16.3353125 3.98181818,16.5558594 3.98181818,16.8279297 L3.98181818,18.3223438 L3.28011858,19.0147266 L1.03565217,19.0147266 L1.03565217,18.3185937 L7.12818182,12.2975 C7.30339921,12.1243359 7.30339921,11.8436328 7.12818182,11.6705078 C6.95296443,11.4973828 6.66901186,11.4973047 6.49367589,11.6705078 L1.03565217,17.0646094 L1.03565217,16.1746094 L7.66395257,9.62351562 C7.66545455,9.62203125 7.66660079,9.62066406 7.66798419,9.61921875 C7.80561265,9.47980469 7.85201581,9.26671875 7.76798419,9.07734375 C7.44324111,8.345625 7.27865613,7.56582031 7.27865613,6.75976562 C7.27865613,3.57570313 9.89980237,0.985273438 13.1216206,0.985273438 C16.3434387,0.985273438 18.9645059,3.57566406 18.9645059,6.75976562 C18.9644269,9.94375 16.3432411,12.5341406 13.121502,12.5341406 Z" id="Shape" fill="#6D3078"></path>
                    <path d="M15.203083,2.8571875 C14.1735573,2.8571875 13.3360079,3.68492188 13.3360079,4.70238281 C13.3360079,5.71984375 14.1735573,6.54757813 15.203083,6.54757813 C16.2326087,6.54757813 17.0701581,5.71984375 17.0701581,4.70238281 C17.0701581,3.68492188 16.2326482,2.8571875 15.203083,2.8571875 Z M15.203083,5.56234375 C14.7232806,5.56234375 14.3329249,5.1765625 14.3329249,4.70238281 C14.3329249,4.22820313 14.7232806,3.84242187 15.203083,3.84242187 C15.6828854,3.84242187 16.0732411,4.22820313 16.0732411,4.70238281 C16.0732411,5.1765625 15.6828854,5.56234375 15.203083,5.56234375 Z" id="Shape" fill="#F37435"></path>
                </g>
            </g>
        </g>
    </g>
</svg>