<?xml version="1.0" encoding="UTF-8"?>
<svg width="60px" height="60px" viewBox="0 0 60 60" version="1.1" xmlns="http://www.w3.org/2000/svg" xmlns:xlink="http://www.w3.org/1999/xlink">
    <!-- Generator: Sketch 53.1 (72631) - https://sketchapp.com -->
    <title>Logo</title>
    <desc>Created with Sketch.</desc>
    <g id="Mansi" stroke="none" stroke-width="1" fill="none" fill-rule="evenodd">
        <g id="01" transform="translate(-32.000000, -80.000000)">
            <g id="Logo" transform="translate(32.000000, 80.000000)">
                <circle id="Oval" fill="#6D3078" cx="30" cy="30" r="29.1666667"></circle>
                <g id="1" fill="#F37435">
                    <polygon id="Fill-9" points="14.6566607 30.8909597 20.8476842 30.8909597 17.7515547 23.546022"></polygon>
                    <path d="M50.0861031,30.5081905 C50.0861031,37.2495238 46.2874899,40.5557216 40.2871061,40.5557216 C34.285722,40.5557216 30.6151433,37.2172894 30.6151433,30.6681319 L30.6151433,20.2077656 C30.6151433,18.840967 31.7014953,17.7589451 33.0746305,17.7589451 C34.4471185,17.7589451 35.5307638,18.840967 35.5307638,20.2077656 L35.5307638,30.5395458 C35.5307638,34.1659194 37.3509609,36.0419048 40.3514764,36.0419048 C43.3506974,36.0419048 45.1713652,34.2295678 45.1713652,30.6995458 L45.1713652,20.2077656 C45.1713652,18.840967 46.2557754,17.7589451 47.6294991,17.7589451 C49.001281,17.7589451 50.0861031,18.840967 50.0861031,20.2077656 L50.0861031,30.5081905 Z M26.531865,40.3980659 C25.3818489,40.3980659 24.6144653,39.7298755 24.1679331,38.7115018 L22.668352,35.2152381 L12.8362872,35.2152381 L11.2731595,38.8714432 C10.8572238,39.8238828 10.0277646,40.3980659 9.00748934,40.3980659 C7.72973279,40.3980659 6.74134845,39.3798095 6.74134845,38.1070769 C6.74134845,37.7601758 6.86861808,37.4081758 7.02824939,37.0586374 L14.8154094,19.5407473 C15.3584972,18.3302564 16.3478818,17.600293 17.6887142,17.600293 L17.9764389,17.600293 C19.317742,17.600293 20.2744119,18.3302564 20.8171466,19.5407473 L28.6047185,37.0586374 C28.7652912,37.4081758 28.861376,37.725304 28.861376,38.0447766 C28.861376,39.3489231 27.8376291,40.3980659 26.531865,40.3980659 Z M29.6247584,0.410021978 C13.3657242,0.410021978 0.186873954,13.5379927 0.186873954,29.7325128 C0.186873954,45.9267985 13.3657242,59.0558242 29.6247584,59.0558242 C45.8826748,59.0558242 59.0621722,45.9267985 59.0621722,29.7325128 C59.0621722,13.5379927 45.8826748,0.410021978 29.6247584,0.410021978 L29.6247584,0.410021978 Z" id="Fill-10"></path>
                </g>
            </g>
        </g>
    </g>
</svg>