<?xml version="1.0" encoding="UTF-8"?>
<svg width="90px" height="42px" viewBox="0 0 90 42" version="1.1" xmlns="http://www.w3.org/2000/svg" xmlns:xlink="http://www.w3.org/1999/xlink">
    <!-- Generator: Sketch 53.1 (72631) - https://sketchapp.com -->
    <title>logo</title>
    <desc>Created with Sketch.</desc>
    <g id="Mansi" stroke="none" stroke-width="1" fill="none" fill-rule="evenodd">
        <g id="01" transform="translate(-33.000000, -5563.000000)" fill="#FFFFFF">
            <g id="1" transform="translate(0.000000, 5254.000000)">
                <g id="logo" transform="translate(33.000000, 309.000000)">
                    <g id="Group-2">
                        <polygon id="Fill-46" points="10.2380952 21.7777778 14.96337 21.7777778 12.6001812 16.3333333"></polygon>
                        <path d="M36.0437066,21.5549775 C36.0437066,26.3828184 33.3001334,28.7506196 28.9656216,28.7506196 C24.630588,28.7506196 21.9793716,26.3601453 21.9793716,21.6698893 L21.9793716,14.1784654 C21.9793716,13.1993964 22.7636224,12.4243859 23.7555457,12.4243859 C24.7469472,12.4243859 25.5296326,13.1993964 25.5296326,14.1784654 L25.5296326,21.5776507 C25.5296326,24.1747601 26.8445441,25.5181459 29.0120609,25.5181459 C31.1785341,25.5181459 32.4934456,24.2201065 32.4934456,21.6920472 L32.4934456,14.1784654 C32.4934456,13.1993964 33.2771746,12.4243859 34.2690979,12.4243859 C35.2599776,12.4243859 36.0437066,13.1993964 36.0437066,14.1784654 L36.0437066,21.5549775 Z M19.0296912,28.637769 C18.1990011,28.637769 17.644338,28.1595711 17.3223934,27.429907 L16.2386351,24.9260668 L9.13706945,24.9260668 L8.0079153,27.5448188 C7.70736411,28.22656 7.10834887,28.637769 6.37105922,28.637769 C5.44801223,28.637769 4.73420314,27.9086202 4.73420314,26.9970554 C4.73420314,26.7486811 4.82603822,26.4966996 4.94135387,26.2462641 L10.566253,13.7007828 C10.9586393,12.8335337 11.673492,12.31102 12.6419347,12.31102 L12.8496072,12.31102 C13.8185718,12.31102 14.5099439,12.8335337 14.9018084,13.7007828 L20.5267075,26.2462641 C20.6430667,26.4966996 20.7124648,26.7239467 20.7124648,26.9527397 C20.7124648,27.8864623 19.973088,28.637769 19.0296912,28.637769 L19.0296912,28.637769 Z M21.2639972,0 C9.51954172,0 0,9.40163914 0,20.9994847 C0,32.5973303 9.51954172,42 21.2639972,42 C33.007409,42 42.5274725,32.5973303 42.5274725,20.9994847 C42.5274725,9.40163914 33.007409,0 21.2639972,0 L21.2639972,0 Z" id="Fill-47"></path>
                    </g>
                    <path d="M50.8987495,8.461774 L49.929604,5.94373141 L48.9609913,8.461774 L50.8987495,8.461774 Z M46.5730253,10.5764183 L49.0105408,4.57194459 C49.1805009,4.15750222 49.490052,3.90697674 49.9098908,3.90697674 L49.9999323,3.90697674 C50.4187055,3.90697674 50.7191992,4.15750222 50.8886265,4.57194459 L53.3261421,10.5764183 C53.3762244,10.696159 53.4065934,10.8054369 53.4065934,10.9147148 C53.4065934,11.3611268 53.0863864,11.7209302 52.6772035,11.7209302 C52.3175701,11.7209302 52.0778144,11.4924929 51.9376906,11.1431522 L51.4683024,9.94458255 L48.3909057,9.94458255 L47.9018042,11.1972099 C47.7718034,11.5244625 47.5123345,11.7209302 47.1931931,11.7209302 C46.7930676,11.7209302 46.4835165,11.3715896 46.4835165,10.9362217 C46.4835165,10.816481 46.522943,10.696159 46.5730253,10.5764183 L46.5730253,10.5764183 Z" id="Fill-48"></path>
                    <path d="M54.3956044,8.33157051 L54.3956044,4.74574301 C54.3956044,4.27724293 54.7260818,3.90697674 55.1447556,3.90697674 C55.5629106,3.90697674 55.893388,4.27724293 55.893388,4.74574301 L55.893388,8.28797559 C55.893388,9.53072144 56.4479881,10.1736012 57.3626374,10.1736012 C58.2767678,10.1736012 58.831368,9.55280954 58.831368,8.34319582 L58.831368,4.74574301 C58.831368,4.27724293 59.1618453,3.90697674 59.5805191,3.90697674 C59.9986742,3.90697674 60.3296703,4.27724293 60.3296703,4.74574301 L60.3296703,8.27693154 C60.3296703,10.5874623 59.1711838,11.7209302 57.3434417,11.7209302 C55.5141431,11.7209302 54.3956044,10.5769995 54.3956044,8.33157051" id="Fill-49"></path>
                    <path d="M47.7338554,19.6 C47.5806135,19.4691886 47.4725275,19.2312972 47.4725275,18.9702532 C47.4725275,18.5367235 47.7607568,18.1998553 48.1215239,18.1998553 C48.3011869,18.1998553 48.427047,18.2756796 48.5178393,18.3515039 C48.9948588,18.7757726 49.5175147,19.0362377 50.1295217,19.0362377 C50.6973336,19.0362377 51.0393657,18.7647752 51.0393657,18.3190904 L51.0393657,18.2982532 C51.0393657,17.8745633 50.8231937,17.657509 49.769235,17.3322171 C48.5000651,16.9415194 47.6795722,16.5178295 47.6795722,15.009447 L47.6795722,14.988031 C47.6795722,13.6093023 48.5985435,12.6976744 49.8864483,12.6976744 C50.6521776,12.6976744 51.3184678,12.9367235 51.8857993,13.370832 C52.0395216,13.4790698 52.1918028,13.7071214 52.1918028,14.0324134 C52.1918028,14.4671008 51.9040538,14.8033902 51.5437671,14.8033902 C51.4087797,14.8033902 51.3006937,14.7594005 51.1926077,14.684155 C50.7333622,14.3582842 50.3005378,14.1736434 49.8686742,14.1736434 C49.336891,14.1736434 49.0577889,14.4671008 49.0577889,14.8363824 L49.0577889,14.8572196 C49.0577889,15.3567339 49.3277637,15.5193798 50.4182315,15.8556693 C51.697009,16.2579432 52.4175824,16.8112868 52.4175824,18.1350284 L52.4175824,18.1570233 C52.4175824,19.6654057 51.4625825,20.5116279 50.1026203,20.5116279 C49.2739609,20.5116279 48.4361743,20.2077519 47.7338554,19.6" id="Fill-50"></path>
                    <path d="M53.4065934,13.5456776 C53.4065934,13.0732606 53.7425934,12.6976744 54.1682637,12.6976744 L54.336,12.6976744 C54.6625055,12.6976744 54.8903736,12.8848807 55.0285714,13.1389882 L56.8683956,16.4729026 L58.7171868,13.127838 C58.875956,12.8402798 59.0932747,12.6976744 59.3997363,12.6976744 L59.568,12.6976744 C59.9931429,12.6976744 60.3296703,13.0732606 60.3296703,13.5456776 L60.3296703,19.6636247 C60.3296703,20.1360417 59.9931429,20.5116279 59.568,20.5116279 C59.1528791,20.5116279 58.8163516,20.1260652 58.8163516,19.6636247 L58.8163516,15.8232558 L57.4807912,18.1119842 C57.3225495,18.3766551 57.1252747,18.5409741 56.8483516,18.5409741 C56.5714286,18.5409741 56.3736264,18.3766551 56.2153846,18.1119842 L54.9003956,15.8567065 L54.9003956,19.6853383 C54.9003956,20.1483656 54.5633407,20.5116279 54.1482198,20.5116279 C53.7325714,20.5116279 53.4065934,20.1483656 53.4065934,19.6853383 L53.4065934,13.5456776 Z" id="Fill-51"></path>
                    <path d="M64.7452432,17.2529565 L63.7760231,14.7352885 L62.8073358,17.2529565 L64.7452432,17.2529565 Z M60.419186,19.3672862 L62.8568891,13.3625434 C63.0268623,12.9487438 63.3364373,12.6976744 63.7557755,12.6976744 L63.845824,12.6976744 C64.2656951,12.6976744 64.5656791,12.9487438 64.7351194,13.3625434 L67.1728226,19.3672862 C67.2229087,19.4870091 67.2527473,19.5956896 67.2527473,19.7043701 C67.2527473,20.151878 66.9330485,20.5116279 66.5233012,20.5116279 C66.1636401,20.5116279 65.9243989,20.2826433 65.7847971,19.9327735 L65.314307,18.7355445 L62.2377392,18.7355445 L61.7480672,19.9879855 C61.6180564,20.314027 61.3585675,20.5116279 61.0388688,20.5116279 C60.6387125,20.5116279 60.3296703,20.1617581 60.3296703,19.7264549 C60.3296703,19.606732 60.3696327,19.4870091 60.419186,19.3672862 L60.419186,19.3672862 Z" id="Fill-52"></path>
                    <path d="M69.2307692,13.5494939 C69.2307692,13.0742932 69.5613377,12.6976744 69.9794704,12.6976744 C70.3970851,12.6976744 70.7271354,13.0742932 70.7271354,13.5494939 L70.7271354,18.9620602 L73.4955164,18.9620602 C73.8742712,18.9620602 74.1758242,19.3050312 74.1758242,19.7371392 C74.1758242,20.1692472 73.8742712,20.5116279 73.4955164,20.5116279 L69.9794704,20.5116279 C69.5613377,20.5116279 69.2307692,20.1350092 69.2307692,19.6598084 L69.2307692,13.5494939 Z" id="Fill-53"></path>
                    <path d="M73.1868132,13.5494939 C73.1868132,13.0742932 73.5168981,12.6976744 73.9345565,12.6976744 C74.3527331,12.6976744 74.682818,13.0742932 74.682818,13.5494939 L74.682818,18.9620602 L77.4514891,18.9620602 C77.8302835,18.9620602 78.1318681,19.3050312 78.1318681,19.7371392 C78.1318681,20.1692472 77.8302835,20.5116279 77.4514891,20.5116279 L73.9345565,20.5116279 C73.5168981,20.5116279 73.1868132,20.1350092 73.1868132,19.6598084 L73.1868132,13.5494939 Z" id="Fill-54"></path>
                    <path d="M47.4725275,22.3407819 C47.4725275,21.8644005 47.7846819,21.4883721 48.1790338,21.4883721 L51.7751705,21.4883721 C52.1333164,21.4883721 52.4175824,21.8313431 52.4175824,22.2622705 C52.4175824,22.6943785 52.1333164,23.0379398 51.7751705,23.0379398 L48.8855401,23.0379398 L48.8855401,24.6866799 L51.3622264,24.6866799 C51.7203722,24.6866799 52.0046383,25.0296509 52.0046383,25.4617589 C52.0046383,25.8932766 51.7203722,26.2362476 51.3622264,26.2362476 L48.8855401,26.2362476 L48.8855401,28.4499158 C48.8855401,28.9262971 48.5733857,29.3023256 48.1790338,29.3023256 C47.7846819,29.3023256 47.4725275,28.9262971 47.4725275,28.4499158 L47.4725275,22.3407819 Z" id="Fill-55"></path>
                    <path d="M53.4065934,22.3324594 C53.4065934,21.861831 53.6251556,21.4883721 53.9009276,21.4883721 C54.1773848,21.4883721 54.3956044,21.861831 54.3956044,22.3324594 L54.3956044,28.457653 C54.3956044,28.9294521 54.1773848,29.3023256 53.9009276,29.3023256 C53.6251556,29.3023256 53.4065934,28.9294521 53.4065934,28.457653 L53.4065934,22.3324594 Z" id="Fill-56"></path>
                    <path d="M55.3846154,22.3547679 C55.3846154,21.8835188 55.7087728,21.5094466 56.1194401,21.5094466 L56.2715957,21.5094466 C56.6247593,21.5094466 56.8349274,21.7073127 57.0349177,22.0035264 L59.8693871,26.2839899 L59.8693871,22.3213999 C59.8693871,21.8618589 60.1935446,21.4883721 60.5940342,21.4883721 C60.9945239,21.4883721 61.3186813,21.8618589 61.3186813,22.3213999 L61.3186813,28.4353444 C61.3186813,28.9071788 60.9945239,29.2800803 60.5848743,29.2800803 L60.5370395,29.2800803 C60.1838758,29.2800803 59.9737078,29.0827996 59.7732085,28.7871713 L56.8349274,24.3527469 L56.8349274,28.4681269 C56.8349274,28.9300095 56.510261,29.3023256 56.1097714,29.3023256 C55.7087728,29.3023256 55.3846154,28.9300095 55.3846154,28.4681269 L55.3846154,22.3547679 Z" id="Fill-57"></path>
                    <path d="M66.7234582,26.0428306 L65.7537799,23.5261377 L64.7846343,26.0428306 L66.7234582,26.0428306 Z M62.3972011,28.1578987 L64.8352494,22.1532905 C65.0046767,21.7394602 65.3142279,21.4883721 65.7340666,21.4883721 L65.8241082,21.4883721 C66.2434141,21.4883721 66.5428423,21.7394602 66.7133351,22.1532905 L69.1503179,28.1578987 C69.2004002,28.2776306 69.2307692,28.3874816 69.2307692,28.4955889 C69.2307692,28.9431302 68.9110951,29.3023256 68.5013793,29.3023256 C68.1412131,29.3023256 67.9019903,29.0739052 67.7618664,28.7245905 L67.2924782,27.52611 L64.2150815,27.52611 L63.72598,28.7792255 C63.596512,29.1058724 63.3365103,29.3023256 63.0168362,29.3023256 C62.6172435,29.3023256 62.3076923,28.9530109 62.3076923,28.5182566 C62.3076923,28.3973624 62.3471188,28.2776306 62.3972011,28.1578987 L62.3972011,28.1578987 Z" id="Fill-58"></path>
                    <path d="M70.2197802,22.3547679 C70.2197802,21.8835188 70.5439099,21.5094466 70.9540331,21.5094466 L71.1071933,21.5094466 C71.4598178,21.5094466 71.6699678,21.7073127 71.8704499,22.0035264 L74.7036585,26.2839899 L74.7036585,22.3213999 C74.7036585,21.8618589 75.028297,21.4883721 75.4287523,21.4883721 C75.8297165,21.4883721 76.1538462,21.8618589 76.1538462,22.3213999 L76.1538462,28.4353444 C76.1538462,28.9071788 75.8297165,29.2800803 75.4195933,29.2800803 L75.3717625,29.2800803 C75.0186291,29.2800803 74.808988,29.0827996 74.6085059,28.7871713 L71.6699678,24.3527469 L71.6699678,28.4681269 C71.6699678,28.9300095 71.3458382,29.3023256 70.944874,29.3023256 C70.5439099,29.3023256 70.2197802,28.9300095 70.2197802,28.4681269 L70.2197802,22.3547679 Z" id="Fill-59"></path>
                    <path d="M77.1428571,25.4177994 L77.1428571,25.3953488 C77.1428571,23.2470009 78.5472428,21.4883721 80.5592136,21.4883721 C81.5422336,21.4883721 82.2067332,21.7905915 82.7499154,22.2551458 C82.8996899,22.3835171 83.0309922,22.6218386 83.0309922,22.9131205 C83.0309922,23.3661617 82.7124718,23.7224927 82.3190641,23.7224927 C82.1223602,23.7224927 81.9915572,23.6361443 81.888712,23.5613091 C81.4863178,23.2147642 81.0649522,23.0207682 80.5497279,23.0207682 C79.4458898,23.0207682 78.6500879,24.0782481 78.6500879,25.3740496 L78.6500879,25.3953488 C78.6500879,26.6911503 79.4264191,27.7699295 80.5497279,27.7699295 C81.1583117,27.7699295 81.5607058,27.5540585 81.973085,27.1758526 C82.0849166,27.0693563 82.2346911,26.992794 82.403437,26.992794 C82.7683876,26.992794 83.0769231,27.3387632 83.0769231,27.7589921 C83.0769231,28.0186129 82.9645922,28.2229707 82.8342884,28.353069 C82.2441768,28.9465702 81.5517194,29.3023256 80.5032978,29.3023256 C78.5747014,29.3023256 77.1428571,27.5857196 77.1428571,25.4177994" id="Fill-60"></path>
                    <path d="M85.0549451,28.4426419 L85.0549451,22.3486512 C85.0549451,21.8682047 85.3665753,21.4883721 85.760265,21.4883721 L89.3679473,21.4883721 C89.7157228,21.4883721 90,21.8342698 90,22.2587535 C90,22.6826419 89.7157228,23.0178233 89.3679473,23.0178233 L86.4567929,23.0178233 L86.4567929,24.6026419 L88.9014788,24.6026419 C89.2492543,24.6026419 89.5335315,24.9491349 89.5335315,25.3736186 C89.5335315,25.797507 89.2492543,26.1326884 88.9014788,26.1326884 L86.4567929,26.1326884 L86.4567929,27.7734698 L89.3601322,27.7734698 C89.7079077,27.7734698 89.9916964,28.1187721 89.9916964,28.5432558 C89.9916964,28.9671442 89.7079077,29.3023256 89.3601322,29.3023256 L85.760265,29.3023256 C85.3665753,29.3023256 85.0549451,28.922493 85.0549451,28.4426419" id="Fill-61"></path>
                    <path d="M50.2407121,35.608741 C50.8054307,35.608741 51.1463008,35.341409 51.1463008,34.7608996 L51.1463008,34.7394654 C51.1463008,34.2143277 50.8550763,33.8898379 50.198602,33.8898379 L48.7194295,33.8898379 L48.7194295,35.608741 L50.2407121,35.608741 Z M49.899842,32.4608918 C50.4645605,32.4608918 50.8222747,32.2155894 50.8222747,31.6344847 L50.8222747,31.6130505 C50.8222747,31.0992253 50.5230714,30.8092683 49.9827324,30.8092683 L48.7194295,30.8092683 L48.7194295,32.4608918 L49.899842,32.4608918 Z M47.4725275,30.1620748 C47.4725275,29.6815917 47.7548867,29.3023256 48.1126009,29.3023256 L50.1737793,29.3023256 C50.8386755,29.3023256 51.3621705,29.547628 51.6946186,29.994769 C51.9605771,30.3520056 52.0935563,30.7866433 52.0935563,31.3230935 L52.0935563,31.3451231 C52.0935563,32.2269019 51.7447074,32.7181021 51.3289256,33.0300887 C52.0022439,33.3766081 52.4175824,33.9017458 52.4175824,34.9508304 L52.4175824,34.9728599 C52.4175824,36.4024014 51.5536606,37.1162791 50.2407121,37.1162791 L48.1126009,37.1162791 C47.7548867,37.1162791 47.4725275,36.7376084 47.4725275,36.2565298 L47.4725275,30.1620748 Z" id="Fill-62"></path>
                    <path d="M57.8221663,33.856784 L56.8529462,31.3400912 L55.8837261,33.856784 L57.8221663,33.856784 Z M53.4961091,35.971271 L55.9338122,29.9660815 C56.1037854,29.5534136 56.4138932,29.3023256 56.8326986,29.3023256 L56.9222142,29.3023256 C57.3426181,29.3023256 57.6420693,29.5534136 57.8120425,29.9660815 L60.2497456,35.971271 C60.2998318,36.0910028 60.3296703,36.2002726 60.3296703,36.30838 C60.3296703,36.7559212 60.0099716,37.1162791 59.6002243,37.1162791 C59.2405632,37.1162791 59.0007891,36.8866962 58.8606545,36.5379628 L58.3917629,35.3389011 L55.3141294,35.3389011 L54.8244575,36.5925977 C54.6949795,36.9192447 54.4349578,37.1162791 54.115259,37.1162791 C53.7156356,37.1162791 53.4065934,36.7669644 53.4065934,36.3310477 C53.4065934,36.2107346 53.4460229,36.0910028 53.4961091,35.971271 L53.4961091,35.971271 Z" id="Fill-63"></path>
                    <path d="M60.3296703,30.169112 C60.3296703,29.6979688 60.6538,29.3245659 61.0644321,29.3245659 L61.2165745,29.3245659 C61.5702168,29.3245659 61.7798579,29.5223875 61.98034,29.8179494 L64.8135487,34.0980364 L64.8135487,30.1363368 C64.8135487,29.6751432 65.1381871,29.3023256 65.5386425,29.3023256 C65.9390978,29.3023256 66.2637363,29.6751432 66.2637363,30.1363368 L66.2637363,36.2489074 C66.2637363,36.7200506 65.9390978,37.0940388 65.5294834,37.0940388 L65.4816526,37.0940388 C65.1285192,37.0940388 64.9188781,36.8962172 64.7178872,36.6006553 L61.7798579,32.166642 L61.7798579,36.2822679 C61.7798579,36.7434614 61.4552195,37.1162791 61.0542553,37.1162791 C60.6538,37.1162791 60.3296703,36.7434614 60.3296703,36.2822679 L60.3296703,30.169112 Z" id="Fill-64"></path>
                    <path d="M69.2307692,30.1468717 C69.2307692,29.6751432 69.518393,29.3023256 69.8822055,29.3023256 C70.2455672,29.3023256 70.5327401,29.6751432 70.5327401,30.1468717 L70.5327401,32.7261611 L72.9333617,29.6312479 C73.0943047,29.4234767 73.254797,29.3023256 73.4829124,29.3023256 C73.8458232,29.3023256 74.0829551,29.6640231 74.0829551,30.0819066 C74.0829551,30.3452786 73.9905368,30.5425149 73.8458232,30.7175109 L72.1809415,32.736696 L73.9982007,35.6999232 C74.0996354,35.8649696 74.1758242,36.0399657 74.1758242,36.2928027 C74.1758242,36.7645312 73.8972168,37.1162791 73.516724,37.1162791 C73.2629118,37.1162791 73.1109851,36.9506474 72.9671732,36.7095157 L71.2770455,33.8340791 L70.5327401,34.734226 L70.5327401,36.2705624 C70.5327401,36.7428762 70.2455672,37.1162791 69.8822055,37.1162791 C69.518393,37.1162791 69.2307692,36.7428762 69.2307692,36.2705624 L69.2307692,30.1468717 Z" id="Fill-65"></path>
                </g>
            </g>
        </g>
    </g>
</svg>