<?xml version="1.0" encoding="UTF-8"?>
<svg width="24px" height="20px" viewBox="0 0 24 20" version="1.1" xmlns="http://www.w3.org/2000/svg" xmlns:xlink="http://www.w3.org/1999/xlink">
    <!-- Generator: Sketch 53.2 (72643) - https://sketchapp.com -->
    <title>Menu</title>
    <desc>Created with Sketch.</desc>
    <g id="Mobile_Homepage" stroke="none" stroke-width="1" fill="none" fill-rule="evenodd">
        <g id="01_Mobile_Homepage" transform="translate(-312.000000, -22.000000)" fill="#6D3078">
            <g id="Header">
                <g id="Menu" transform="translate(312.000000, 22.000000)">
                    <path d="M22.3545455,4 C22.9319341,4 23.4,3.1045695 23.4,2 C23.4,0.8954305 22.9319341,0 22.3545455,0 L1.44545455,0 C0.868065943,0 0.4,0.8954305 0.4,2 C0.4,3.1045695 0.868065943,4 1.44545455,4 L22.3545455,4 Z" id="Shape"></path>
                    <path d="M1.44545455,8 C0.868065943,8 0.4,8.8954305 0.4,10 C0.4,11.1045695 0.868065943,12 1.44545455,12 L22.3545455,12 C22.9319341,12 23.4,11.1045695 23.4,10 C23.4,8.8954305 22.9319341,8 22.3545455,8 L1.44545455,8 Z" id="Shape"></path>
                    <path d="M1.44545455,16 C0.868065943,16 0.4,16.8954305 0.4,18 C0.4,19.1045695 0.868065943,20 1.44545455,20 L22.3545455,20 C22.9319341,20 23.4,19.1045695 23.4,18 C23.4,16.8954305 22.9319341,16 22.3545455,16 L1.44545455,16 Z" id="Shape"></path>
                </g>
            </g>
        </g>
    </g>
</svg>