<?xml version="1.0" encoding="UTF-8"?>
<svg width="18px" height="26px" viewBox="0 0 18 26" version="1.1" xmlns="http://www.w3.org/2000/svg" xmlns:xlink="http://www.w3.org/1999/xlink">
    <!-- Generator: Sketch 53.2 (72643) - https://sketchapp.com -->
    <title>microphone-3</title>
    <desc>Created with Sketch.</desc>
    <g id="changes" stroke="none" stroke-width="1" fill="none" fill-rule="evenodd">
        <g id="01_Homepage" transform="translate(-1141.000000, -87.000000)" fill="#6D3078" fill-rule="nonzero" stroke="#6D3078" stroke-width="0.2">
            <g id="microphone-3" transform="translate(1142.000000, 88.000000)">
                <path d="M15.9473778,11.4414024 C15.9473778,11.045259 15.6488889,10.7242709 15.2807111,10.7242709 C14.9125333,10.7242709 14.6140444,11.045259 14.6140444,11.4414024 C14.6140444,15.3594263 11.6507556,18.5470279 8.00844444,18.5470279 C4.36613333,18.5470279 1.40284444,15.3593307 1.40284444,11.4414024 C1.40284444,11.045259 1.10435556,10.7242709 0.736177778,10.7242709 C0.368,10.7242709 0.0695111111,11.045259 0.0695111111,11.4414024 C0.0695111111,15.9088446 3.27502222,19.5854343 7.34177778,19.9508845 L7.34177778,22.4881912 L4.37226667,22.4881912 C4.00408889,22.4881912 3.7056,22.8091793 3.7056,23.2053227 C3.7056,23.6014661 4.00408889,23.9224542 4.37226667,23.9224542 L11.6445333,23.9224542 C12.0127111,23.9224542 12.3112,23.6014661 12.3112,23.2053227 C12.3112,22.8091793 12.0127111,22.4881912 11.6445333,22.4881912 L8.67502222,22.4881912 L8.67502222,19.9508845 C12.7417778,19.5854343 15.9473778,15.9088446 15.9473778,11.4414024 Z" id="Path"></path>
                <path d="M8.00835556,16.0698645 C10.3809778,16.0698645 12.3112,13.9935299 12.3112,11.4414024 L12.3112,4.62846215 C12.3112,2.07633466 10.3809778,0 8.00835556,0 C5.63582222,0 3.7056,2.07633466 3.7056,4.62846215 L3.7056,11.4414024 C3.7056,13.9936255 5.63582222,16.0698645 8.00835556,16.0698645 Z M5.03893333,4.62846215 C5.03893333,2.86718725 6.37102222,1.43426295 8.00835556,1.43426295 C9.64577778,1.43426295 10.9778667,2.86718725 10.9778667,4.62846215 L10.9778667,11.4414024 C10.9778667,13.2026773 9.64577778,14.6356016 8.00835556,14.6356016 C6.37102222,14.6356016 5.03893333,13.2026773 5.03893333,11.4414024 L5.03893333,4.62846215 Z" id="Shape"></path>
            </g>
        </g>
    </g>
</svg>