<?xml version="1.0" encoding="UTF-8"?>
<svg width="14px" height="20px" viewBox="0 0 14 20" version="1.1" xmlns="http://www.w3.org/2000/svg" xmlns:xlink="http://www.w3.org/1999/xlink">
    <!-- Generator: Sketch 53.2 (72643) - https://sketchapp.com -->
    <title>microphone-3</title>
    <desc>Created with Sketch.</desc>
    <g id="Mobile_Homepage" stroke="none" stroke-width="1" fill="none" fill-rule="evenodd">
        <g id="01_Mobile_Homepage" transform="translate(-305.000000, -241.000000)" fill="#6D3078" fill-rule="nonzero" stroke="#6D3078" stroke-width="0.2">
            <g id="1" transform="translate(24.000000, 231.000000)">
                <g id="microphone-3" transform="translate(282.000000, 11.000000)">
                    <path d="M11.9605333,8.58105179 C11.9605333,8.28394422 11.7366667,8.04320319 11.4605333,8.04320319 C11.1844,8.04320319 10.9605333,8.28394422 10.9605333,8.58105179 C10.9605333,11.5195697 8.73806667,13.9102709 6.00633333,13.9102709 C3.2746,13.9102709 1.05213333,11.519498 1.05213333,8.58105179 C1.05213333,8.28394422 0.828266667,8.04320319 0.552133333,8.04320319 C0.276,8.04320319 0.0521333333,8.28394422 0.0521333333,8.58105179 C0.0521333333,11.9316335 2.45626667,14.6890757 5.50633333,14.9631633 L5.50633333,16.8661434 L3.2792,16.8661434 C3.00306667,16.8661434 2.7792,17.1068845 2.7792,17.403992 C2.7792,17.7010996 3.00306667,17.9418406 3.2792,17.9418406 L8.7334,17.9418406 C9.00953333,17.9418406 9.2334,17.7010996 9.2334,17.403992 C9.2334,17.1068845 9.00953333,16.8661434 8.7334,16.8661434 L6.50626667,16.8661434 L6.50626667,14.9631633 C9.55633333,14.6890757 11.9605333,11.9316335 11.9605333,8.58105179 Z" id="Path"></path>
                    <path d="M6.00626667,12.0523984 C7.78573333,12.0523984 9.2334,10.4951474 9.2334,8.58105179 L9.2334,3.47134661 C9.2334,1.557251 7.78573333,0 6.00626667,0 C4.22686667,0 2.7792,1.557251 2.7792,3.47134661 L2.7792,8.58105179 C2.7792,10.4952191 4.22686667,12.0523984 6.00626667,12.0523984 Z M3.7792,3.47134661 C3.7792,2.15039044 4.77826667,1.07569721 6.00626667,1.07569721 C7.23433333,1.07569721 8.2334,2.15039044 8.2334,3.47134661 L8.2334,8.58105179 C8.2334,9.90200797 7.23433333,10.9767012 6.00626667,10.9767012 C4.77826667,10.9767012 3.7792,9.90200797 3.7792,8.58105179 L3.7792,3.47134661 Z" id="Shape"></path>
                </g>
            </g>
        </g>
    </g>
</svg>