<?xml version="1.0" encoding="UTF-8"?>
<svg width="22px" height="26px" viewBox="0 0 22 26" version="1.1" xmlns="http://www.w3.org/2000/svg" xmlns:xlink="http://www.w3.org/1999/xlink">
    <!-- Generator: Sketch 53.2 (72643) - https://sketchapp.com -->
    <title>1</title>
    <desc>Created with Sketch.</desc>
    <g id="changes" stroke="none" stroke-width="1" fill="none" fill-rule="evenodd">
        <g id="01_Homepage" transform="translate(-1307.000000, -17.000000)" stroke="#6D3078">
            <g id="notification" transform="translate(1308.000000, 18.000000)">
                <g id="1" transform="translate(0.030718, 0.000000)">
                    <path d="M12.1265255,20.247 C11.9859647,20.0090156 11.6818993,19.9310156 11.443675,20.0679844 C11.205404,20.208 11.1256843,20.5149844 11.2652171,20.7529688 C11.3947965,20.9739844 11.4655909,21.2389688 11.4655909,21.4999688 C11.4655909,22.3269844 10.794703,22.9999688 9.97026378,22.9999688 C9.14582453,22.9999688 8.47493668,22.3269844 8.47493668,21.4999688 C8.47493668,21.2389688 8.54573107,20.9739844 8.67531051,20.7529688 C8.81386191,20.5139531 8.73414229,20.2079531 8.49685257,20.0679844 C8.25661892,19.9309688 7.95353481,20.0089688 7.8140021,20.247 C7.593675,20.625 7.47703948,21.0579844 7.47703948,21.5000156 C7.47708621,22.8789844 8.59456285,24 9.96928247,24 C11.3440021,24 12.4614787,22.8789844 12.4634881,21.5000156 C12.4634881,21.0579844 12.3468526,20.625 12.1265255,20.247 Z" id="Path" fill="#F37435"></path>
                    <path d="M19.8673666,20.2430156 L18.154703,17.3810156 C17.3651703,16.0600313 16.94746,14.5480313 16.94746,13.0070156 L16.94746,10.5 C16.94746,6.64101563 13.8162451,3.50001563 9.96928247,3.50001563 C6.12231986,3.50001563 2.9911049,6.64101563 2.9911049,10.5 L2.9911049,13.0070156 C2.9911049,14.5480313 2.57339462,16.0600313 1.78386191,17.3810156 L0.0711983604,20.2430156 C-0.02151192,20.397 -0.0235212658,20.5900313 0.0642357435,20.7460313 C0.152974061,20.9030156 0.319422659,21.0000469 0.498861912,21.0000469 L19.4396563,21.0000469 C19.6190956,21.0000469 19.7855909,20.9030625 19.8742825,20.7460313 C19.9620395,20.5899844 19.9600769,20.397 19.8673666,20.2430156 Z M1.37914229,20.0000156 L2.63820771,17.895 C3.52143201,16.419 3.98797406,14.7290156 3.98797406,13.0070156 L3.98797406,10.5 C3.98797406,7.191 6.67059088,4.5 9.96928247,4.5 C13.2679741,4.5 15.9505909,7.191 15.9505909,10.5 L15.9505909,13.0070156 C15.9505909,14.7290156 16.4171329,16.419 17.2993759,17.895 L18.5594227,20.0000156 L1.37914229,20.0000156 Z" id="Shape" fill="#6D3078" fill-rule="nonzero"></path>
                    <path d="M9.96928247,0 C8.86970303,0 7.97549743,0.897 7.97549743,2.00001563 L7.97549743,4.00003125 C7.97549743,4.27598438 8.19881518,4.5 8.47395537,4.5 C8.74909556,4.5 8.97241331,4.27598438 8.97241331,3.99998437 L8.97241331,2.00001563 C8.97241331,1.44801563 9.4190021,1.00003125 9.96928247,1.00003125 C10.5195628,1.00003125 10.9661516,1.44801563 10.9661516,2.00001563 L10.9661516,4.00003125 C10.9661516,4.27598438 11.1894694,4.5 11.4646096,4.5 C11.7397498,4.5 11.9630675,4.27598438 11.9630675,3.99998437 L11.9630675,2.00001563 C11.9630675,0.897 11.0688619,0 9.96928247,0 Z" id="Path" fill="#6D3078"></path>
                </g>
            </g>
        </g>
    </g>
</svg>