<?xml version="1.0" encoding="UTF-8"?>
<svg width="30px" height="32px" viewBox="0 0 30 32" version="1.1" xmlns="http://www.w3.org/2000/svg" xmlns:xlink="http://www.w3.org/1999/xlink">
    <!-- Generator: Sketch 53.2 (72643) - https://sketchapp.com -->
    <title>1</title>
    <desc>Created with Sketch.</desc>
    <g id="changes" stroke="none" stroke-width="1" fill="none" fill-rule="evenodd">
        <g id="01_Homepage_Dropdown" transform="translate(-102.000000, -159.000000)">
            <g id="1" transform="translate(78.000000, 140.000000)">
                <g transform="translate(25.000000, 20.000000)">
                    <g id="Group-5" transform="translate(0.000000, 0.000000)" stroke="#6D3078">
                        <path d="M26.4353925,19.127774 C26.4353925,19.127774 20.4730827,29.5292535 18.7624508,30 L8.97906095,30 C7.26877487,29.5292535 1.31234474,19.127774 1.31234474,19.127774 C-0.948207309,15.1220578 0.39754055,13.0114324 0.39754055,13.0114324 C0.457374624,10.8429724 10.7851507,4.04068594 10.7851507,4.04068594 C11.0601108,3.29623403 10.5098448,3.46503026 10.444477,2.48251513 C10.3901767,1.6395427 11.7895331,1.83120377 11.7895331,1.83120377 L13.8709288,0 L15.9578583,1.83120377 C15.9578583,1.83120377 17.3572147,1.6395427 17.2973806,2.48251513 C17.2320127,3.46503026 16.6872806,3.29623403 16.9625865,4.04068594 C16.9625865,4.04068594 27.2907085,10.8429724 27.3505425,13.0114324 C27.3505425,13.0114324 28.6955987,15.1220578 26.4353925,19.127774 Z" id="Stroke-1"></path>
                        <path d="M19.4190601,11.8631291 C19.4190601,11.8631291 14.8979083,10.4101821 13.5602833,10.5618955 C12.2216124,10.4101821 7.70098364,11.8631291 7.70098364,11.8631291 C7.24918222,11.9640768 6.79685788,11.4190758 6.97778762,10.3092344 C7.13570895,9.34877228 12.0396369,8.3807245 13.2779074,8.15082044 C13.4651122,8.11639319 13.6549315,8.11639319 13.8421363,8.15082044 C15.0809298,8.3807245 19.9843348,9.34877228 20.1422561,10.3092344 C20.3142962,11.4190758 19.8708615,11.9640768 19.4190601,11.8631291 Z" id="Stroke-3"></path>
                    </g>
                    <path d="M11.8777185,14.2939453 L18.4538904,14.2939453 L18.4538904,14.3076172 C18.0665187,14.9046254 17.8477709,15.2236326 17.7976404,15.2646484 L16.0408045,15.2646484 C16.2823421,15.5472019 16.446403,15.891274 16.532992,16.296875 L18.4060389,16.296875 C18.4288254,16.3014323 18.4402185,16.3105468 18.4402185,16.3242188 C18.0209456,16.9531281 17.806755,17.2675781 17.7976404,17.2675781 L16.5808435,17.2675781 C16.5534997,17.5911475 16.3985533,17.980792 16.1159998,18.4365234 C15.7423,18.8968122 15.3845562,19.1953118 15.0427576,19.3320312 C14.4047336,19.6373713 13.7940626,19.7900391 13.2107264,19.7900391 L13.2107264,19.8037109 C13.2107264,19.8492841 13.3542796,20.0384098 13.6413904,20.3710938 L16.8884607,24.2880859 L16.8884607,24.4726562 C16.8884607,24.4908855 16.8770676,24.5 16.854281,24.5 L15.4255701,24.5 C12.8552447,21.5058444 11.5701014,20.0019532 11.5701014,19.9882812 L11.5701014,19.0791016 L11.5837732,19.0449219 C11.8116389,19.0768231 12.0782378,19.0927734 12.3835779,19.0927734 C13.8236893,19.0927734 14.7191881,18.6256557 15.0701014,17.6914062 C15.1247891,17.5546868 15.1521326,17.4134122 15.1521326,17.2675781 L11.2419764,17.2675781 C11.2237471,17.2675781 11.2146326,17.2584636 11.2146326,17.2402344 C11.6475775,16.611325 11.8686039,16.296875 11.8777185,16.296875 L14.9812342,16.296875 L14.9812342,16.2832031 C14.8034989,15.9231753 14.4594268,15.6429046 13.9490076,15.4423828 C13.5844224,15.3238926 13.2563007,15.2646484 12.9646326,15.2646484 L11.2283045,15.2646484 L11.2283045,15.2304688 C11.6475774,14.6061167 11.8640466,14.2939453 11.8777185,14.2939453 Z" id="`" fill="#F37435" fill-rule="nonzero"></path>
                </g>
            </g>
        </g>
    </g>
</svg>